<?xml version="1.0" encoding="utf-8"?>
<!-- Uploaded to: SVG Repo, www.svgrepo.com, Generator: SVG Repo Mixer Tools -->
<svg width="800px" height="800px" viewBox="-89.84 0 432.866 432.866" xmlns="http://www.w3.org/2000/svg"><defs><style>.a{fill:#ffffff;}.b{fill:#211715;}.c{fill:#7a7473;}.d{fill:#c6c6c6;}.e{fill:#b5886a;}.f{fill:#f4b467;}.g{fill:#f8b8b3;}</style></defs><path class="a" d="M73.814,400.969A7.052,7.052,0,0,1,77.172,405a2.459,2.459,0,0,0,3.7,1.238,43.338,43.338,0,0,1,7.341-4.1l-1.127-.813a3.767,3.767,0,0,1-1.344-2.132,29.639,29.639,0,0,1-.253-4.168v-6.172a88.7,88.7,0,0,1-15.8,2.01c-.3.014-.616.021-.941.018l-.041,1.367c-.03.993-.078,5.188-.115,7.6l1,.035A9.484,9.484,0,0,1,73.814,400.969Z"/><path class="a" d="M51.175,391.425c-.016-1.065-.037-2.591-.059-4.028-1.36.421-2.354.814-2.354.814-4.165,1.34-9.9,1.553-15.333,1.316L33.614,391a23.43,23.43,0,0,1,.464,3.449l.079.546,1.8-.049c2.036.049,6.107.844,7.571,5.117a2.458,2.458,0,0,0,3.7,1.238,59.762,59.762,0,0,1,5.363-3.208l-.08-.1a7.821,7.821,0,0,1-1.3-4.866Z"/><path class="a" d="M35.952,394.948c2.036.049,6.107.844,7.571,5.117a2.458,2.458,0,0,0,3.7,1.238,40.762,40.762,0,0,1,7.566-4.179c2.081,1.68,2.759,7.157,2.888,11.187a5.591,5.591,0,0,1-2.766,5.03,35.323,35.323,0,0,1-6.9,3.317c-6.794,2.073-10.664,5.916-16.851,7.878-3.1.983-10.57,2.426-14.456,1.786-7.048-1.16-9.032-4.286-9.766-9.419-.4-2.823,1.648-6.09,3.966-7.9,2.66-2.077,9.308-5.021,12.783-7.254,3.875-2.492,5.461-6.753,12.263-6.8"/><path class="b" d="M30.238,422.727a45.68,45.68,0,0,1-8.72,1.632,16.45,16.45,0,0,1-8.4-1.095,6.627,6.627,0,0,1-3.785-4.578A6.912,6.912,0,0,1,9.059,415a8.756,8.756,0,0,1,2.577-4c2.092-1.941,5.026-3.141,7.528-4.451a39.046,39.046,0,0,0,7.584-4.636c1.766-1.519,3.305-3.437,5.526-4.321a8.251,8.251,0,0,1,6.668.053,5.4,5.4,0,0,1,2.652,2.948,4.615,4.615,0,0,0,4.188,3.125c1.953.045,3.573-1.456,5.157-2.406a22.668,22.668,0,0,1,4.381-2.263l-1.946-.515a6.044,6.044,0,0,1,1.5,3.147,27.968,27.968,0,0,1,.71,4.877c.1,1.41.294,2.877-.6,4.088-1.053,1.422-3.234,2.218-4.782,2.975-1.738.85-3.6,1.328-5.387,2.057a48,48,0,0,0-4.966,2.39c-3.137,1.723-6.166,3.6-9.613,4.655-2.454.751-1.408,4.613,1.064,3.857,5.372-1.642,9.789-5.159,14.97-7.2,5-1.974,12.688-3.743,13.359-10.173a26.4,26.4,0,0,0-.738-7.9c-.426-1.98-1.2-4.8-3.1-5.908-1.125-.658-2.469.119-3.5.613-1.216.58-2.388,1.257-3.54,1.953q-.825.5-1.635,1.019c-.279.181-.959.8-1.277.756-.694-.1-.88-1.469-1.169-1.982-2.239-3.977-6.922-5.246-11.178-4.6a12.884,12.884,0,0,0-6.078,2.776c-1.419,1.123-2.609,2.514-4.048,3.612-3.764,2.87-8.457,4.413-12.42,6.99a13.8,13.8,0,0,0-5.027,5.534,10.391,10.391,0,0,0-.543,7.292c2.808,11.4,17.291,9.727,25.925,7.221C33.769,425.868,32.719,422.007,30.238,422.727Z"/><path class="b" d="M83.489,395.023c.029,1.1.028,2.195.125,3.287A7.079,7.079,0,0,0,84,400.289a6.232,6.232,0,0,0,.672,1.347,5.918,5.918,0,0,0,1.406,1.414,2.009,2.009,0,0,0,1.541.2,2,2,0,0,0,1.4-2.46A2.335,2.335,0,0,0,88.1,399.6l-.079-.059.4.312a3.456,3.456,0,0,1-.55-.558l.313.405a4.309,4.309,0,0,1-.492-.856l.2.477a4.424,4.424,0,0,1-.3-1.07l.071.532a35.666,35.666,0,0,1-.176-3.756,2,2,0,0,0-4,0Z"/><path class="a" d="M69.6,399.882c2.036.049,6.107.844,7.571,5.117a2.459,2.459,0,0,0,3.7,1.238,40.758,40.758,0,0,1,7.565-4.179c2.082,1.68,2.759,7.157,2.888,11.187a5.591,5.591,0,0,1-2.766,5.03,35.323,35.323,0,0,1-6.9,3.317c-6.794,2.073-10.663,5.916-16.851,7.878-3.1.982-8.581,1.845-12.467,1.206-7.048-1.16-10.389-4.621-11.122-9.755-.4-2.823,3-5.754,5.321-7.564,2.66-2.077,7.32-4.44,10.8-6.673,3.875-2.492,5.461-6.753,12.263-6.8"/><path class="b" d="M65.071,427.276c-5.446,1.875-12.442,2.692-17.659-.281a8.094,8.094,0,0,1-3.871-4.794,3.543,3.543,0,0,1,.093-3.084,13.847,13.847,0,0,1,3.238-3.472c4.637-3.874,10.495-5.889,14.913-10.069,1.708-1.615,3.37-3.008,5.73-3.5a7.243,7.243,0,0,1,5.913,1.006c1.3.933,1.487,2.224,2.292,3.492a4.494,4.494,0,0,0,4.538,2c1.7-.3,3.21-1.664,4.666-2.525a21.438,21.438,0,0,1,4.045-2.063l-1.946-.515c1.835,1.6,2.01,5.337,2.188,7.662.106,1.383.355,2.9-.389,4.154-.873,1.467-2.9,2.218-4.354,2.962a54.723,54.723,0,0,1-5.411,2.13,43.771,43.771,0,0,0-4.872,2.254c-3.009,1.611-5.89,3.476-9.114,4.642-2.4.869-1.366,4.736,1.063,3.857,4.991-1.806,9.239-5.1,14.186-6.971a57.649,57.649,0,0,0,8.224-3.573c2.5-1.411,4.361-3.3,4.714-6.269a25.664,25.664,0,0,0-.576-7.377c-.383-2.078-1-4.408-2.5-5.985-1.824-1.92-4.614.11-6.442,1.151-1.063.6-2.107,1.243-3.132,1.908-.44.285-1.028.956-1.512.45-.37-.387-.511-1.3-.779-1.777a9.27,9.27,0,0,0-.948-1.346,8.864,8.864,0,0,0-2.521-2.086,11.393,11.393,0,0,0-5.077-1.371,13.154,13.154,0,0,0-6.693,1.59,22.6,22.6,0,0,0-4.417,3.547c-3.5,3.3-8.114,5.1-12.046,7.815a24.543,24.543,0,0,0-5.678,5.15,7.462,7.462,0,0,0-1.4,6.735c2.789,11.377,17.681,11.478,26.6,8.409C68.554,430.3,67.514,426.435,65.071,427.276Z"/><path class="b" d="M66.712,392.246c-.058,1.919-.088,3.84-.145,5.76a2.016,2.016,0,0,0,2,2,2.041,2.041,0,0,0,2-2c.057-1.92.087-3.841.145-5.76a2.017,2.017,0,0,0-2-2,2.038,2.038,0,0,0-2,2Z"/><path class="b" d="M49.2,393.125A9.859,9.859,0,0,0,50.778,399a2.191,2.191,0,0,0,1.2.919,2.042,2.042,0,0,0,1.541-.2,2.021,2.021,0,0,0,.919-1.2,1.935,1.935,0,0,0-.2-1.541,5.779,5.779,0,0,1-.7-1.2l.2.477a7.474,7.474,0,0,1-.483-1.837l.071.532a15.645,15.645,0,0,1-.12-1.823,2.077,2.077,0,0,0-.586-1.414,2,2,0,0,0-3.414,1.414Z"/><path class="b" d="M31.685,391.534q.178.852.3,1.716l-.071-.532q.115.864.168,1.733a2.119,2.119,0,0,0,.586,1.414,2,2,0,0,0,2.828,0,1.989,1.989,0,0,0,.586-1.414,27.674,27.674,0,0,0-.536-3.981,2,2,0,0,0-3.655-.477,2.194,2.194,0,0,0-.2,1.541Z"/><path class="a" d="M81.517,93.7l-4.824-2.126a5.9,5.9,0,0,1-2.383-4.766c-.043-1.688-.093-5.752-.117-8.83,0,0,0-.029,0-.08a46.492,46.492,0,0,0,4.639-5.5s1.534-2.19,2.194-3.449l.293-.631a9.351,9.351,0,0,0,4.152-1.564,12.69,12.69,0,0,0,4.1-6.17c.893-2.5.948-6.533-.376-8.725a4.376,4.376,0,0,0-3.9-2.063,4.852,4.852,0,0,0-3.387,1.176s4.349-25.946-41.873-25.946c-23.2,0-20.13,22.744-20.13,22.744.483,5.061.743,10.118,1.084,14.773.593,8.074,2.782,15.437,8.251,20.253a25.807,25.807,0,0,0,14.689,6.736v.349c.008,1.987.017,2.892.026,4.879a1.252,1.252,0,0,1-.742,1.4,81.5,81.5,0,0,1-7.286,3.932s-.559,14.043,19.663,14.043C79.81,114.137,81.517,93.7,81.517,93.7Z"/><path class="c" d="M20.177,48.191c.684-3.3,7.332-12.231,11.995-14.677.547-.286,1.249.1,1.471,1.015a6,6,0,0,1,.143,2.188A1.139,1.139,0,0,0,35.41,37.94c3.329-1.849,9.787-7.05,16.748-8.335l6.333,1.124c2.008.873,11.289,4.413,17.857,17.04l5.558,3.2A4.852,4.852,0,0,1,85.293,49.8a4.376,4.376,0,0,1,3.9,2.063,9.072,9.072,0,0,1,1.022,4.42c5.769-11.127,5.759-26.4-.722-37.248a28.1,28.1,0,0,0-4.147-5.34l-4.872-4.6c-6.549-4.775-14.655-7-23.167-7.042C46.5,1.991,35.258,6.19,28.729,13.8c-3.079,3.587-6.688,7.788-8.364,16.2-.672,3.375-1.522,8.29-.462,17.77"/><path class="d" d="M118.971,156.84l1.685,66.072-42.333-.159c-7.957,0-52.592-.042-62.617-.042l.03-4.221c3.619,4.563-6.072-10.26-12.33-23.908-2.588-9.8-.879-16.068-.588-26,.111-3.806,1.3-10.095,1.666-14.135,1.178-9.538,3.448-29.21,6.124-34.1a32.344,32.344,0,0,1,4.745-6.511,40.6,40.6,0,0,1,6.637-5.529c5.308-3.482,10-6.322,15.344-9.185.811,2.935,3.686,4.013,6.379,4.411,7.232,1.069,15.909-1.514,22.86-3.78a111.969,111.969,0,0,0,14.869-6.086,159.915,159.915,0,0,1,24.042,14.5,23.791,23.791,0,0,1,6.974,7.516,26.868,26.868,0,0,1,3.183,8.137,225,225,0,0,1,3.119,24.755Z"/><path class="a" d="M90.972,387.333a79.73,79.73,0,0,1-21.278,3.528,37.311,37.311,0,0,1-13.932-2.483q-.127-1.234-.255-2.486l-6.745,2.319c-6.551,2.108-16.979,1.427-24.032.6a2.477,2.477,0,0,1-2.187-2.392c-.528-17.979-4.827-136.456-5.392-162.819,0,0-.008-.346-.025-.889,12.242,0,53.57.042,61.2.042H89.545Z"/><path class="b" d="M83.321,52.386a3.161,3.161,0,0,1,2.834-.461,1.69,1.69,0,0,1,.57.226c.075.044.489.351.218.125a4.766,4.766,0,0,1,.459.462c-.325-.356-.055-.085.007.031a9.387,9.387,0,0,1,.536,6.249,11.092,11.092,0,0,1-3.052,5.6,5.852,5.852,0,0,1-5.448,1.551c-2.456-.79-3.508,3.07-1.063,3.857a9.7,9.7,0,0,0,7.564-1.19,12.716,12.716,0,0,0,4.921-6.1,15.621,15.621,0,0,0,1.324-7.177c-.149-2.254-.74-4.723-2.559-6.228a7.212,7.212,0,0,0-9.14.224,2.017,2.017,0,0,0,0,2.829,2.044,2.044,0,0,0,2.829,0Z"/><path class="b" d="M35.622,75.206c-.674-.493-.128-.079.1.105a7.242,7.242,0,0,0,1.143.8,8.91,8.91,0,0,0,3.82.963,10.643,10.643,0,0,0,7.065-2.182,2,2,0,0,0,0-2.828,2.06,2.06,0,0,0-2.828,0c.643-.5.215-.167.049-.058-.141.094-.286.181-.433.264-.18.1-.365.188-.549.279-.309.153.345-.12.1-.041-.117.039-.232.09-.349.132-.255.09-.515.168-.777.235a2.782,2.782,0,0,1-.8.165c.473.046.037,0-.107.008-.168.015-.338.025-.507.031a10.031,10.031,0,0,1-1.026-.014,1.617,1.617,0,0,1-.459-.041l.247.033c-.09-.013-.18-.028-.269-.045a6.473,6.473,0,0,1-.66-.16c-.106-.031-.21-.07-.315-.1a1.357,1.357,0,1,0,.148.069c-.138-.1-.33-.157-.479-.243-.132-.077-.256-.162-.382-.248-.347-.235.415.349.062.044-.251-.217-.5-.424-.773-.62a2.007,2.007,0,0,0-2.736.718,2.055,2.055,0,0,0,.717,2.736Z"/><path class="b" d="M55.433,53.024c.591,1.581.486,5.3-2.546,5.8-4.033.213-4.511-4.252-3.278-6.438C50.618,50.6,53.843,49.687,55.433,53.024Z"/><path class="b" d="M32.9,53.22c.474,1.641.285,5.435-2.376,5.8-3.528.027-3.829-4.552-2.695-6.723C28.753,50.516,31.594,49.74,32.9,53.22Z"/><path class="b" d="M41.4,94.763c-4.933,2.481-9.769,5.139-14.474,8.03s-9.412,5.849-13.247,9.893A25.48,25.48,0,0,0,7.632,122.5,81.582,81.582,0,0,0,5.4,132.96C4.069,141,3.234,149.1,2.172,157.173c-.321,2.444-.7,4.879-1,7.325s-.355,4.869-.5,7.316c-.3,5.112-.948,10.229-.545,15.354a27.176,27.176,0,0,0,1.928,9.239c1.338,2.867,2.772,5.689,4.254,8.485,2.373,4.475,4.91,8.857,7.392,13.273,1.261,2.244,4.717.23,3.454-2.019C15.1,212.491,13,208.862,11,205.177c-1.275-2.351-2.52-4.718-3.713-7.112-.606-1.215-1.236-2.431-1.777-3.677A18.254,18.254,0,0,1,4.5,190.2c-.815-4.817-.454-9.7-.09-14.539.365-4.86.531-9.68,1.215-14.512,1.112-7.861,1.9-15.763,3.083-23.615.576-3.816,1.2-7.64,2.094-11.4a38.676,38.676,0,0,1,1.141-3.923c.189-.534-.024-.015.16-.4.123-.253.25-.5.388-.743a32.46,32.46,0,0,1,1.929-3.008c3.414-4.781,8.349-7.969,13.252-11.031,5.109-3.191,10.369-6.114,15.749-8.821,2.3-1.157.278-4.609-2.018-3.454Z"/><path class="b" d="M36.327,101.682c2.416,3.231,6.38,3.983,10.211,4.088A46.441,46.441,0,0,0,59.2,104.032a124.718,124.718,0,0,0,23.106-8.571c2.319-1.116.292-4.566-2.019-3.454a122.776,122.776,0,0,1-20.465,7.718A50.794,50.794,0,0,1,48.83,101.74c-2.639.131-7.235.349-9.049-2.077a2.063,2.063,0,0,0-2.737-.718,2.015,2.015,0,0,0-.717,2.737Z"/><path class="b" d="M80.507,95.428a142.833,142.833,0,0,1,24.528,14.888,23.452,23.452,0,0,1,7.272,9.475c1.709,4.047,2.176,8.6,2.786,12.922.744,5.264,1.238,10.561,1.667,15.859.206,2.548,4.208,2.57,4,0-.4-4.917-.862-9.829-1.51-14.72-.6-4.545-1.024-9.4-2.557-13.747a27.311,27.311,0,0,0-7.232-11.278,84.136,84.136,0,0,0-11.728-8.364,173.023,173.023,0,0,0-15.207-8.489c-2.3-1.14-4.328,2.309-2.019,3.454Z"/><path class="b" d="M72.193,77.979q.03,3.662.086,7.323c.036,2.108.12,4.13,1.4,5.913a6.714,6.714,0,0,0,2.188,2.168c.52.256,1.065.469,1.6.7l3.043,1.342a2.064,2.064,0,0,0,2.737-.718,2.014,2.014,0,0,0-.718-2.736l-2.765-1.219L78.1,90.023c-.124-.055-.257-.1-.376-.166.384.2-.011-.057-.149-.2s-.376-.382-.441-.464a4.717,4.717,0,0,1-.369-.561c-.07-.12-.135-.242-.2-.367.067.176.059.154-.022-.064-.055-.176-.111-.352-.153-.532-.026-.117-.049-.234-.069-.352q.045.36.009.008-.043-1.219-.062-2.44-.055-3.454-.08-6.91c-.021-2.573-4.021-2.579-4,0Z"/><path class="b" d="M37.422,60.233a33.8,33.8,0,0,0-1.487,3.145l.2-.478a4.091,4.091,0,0,0-.47,1.709,2.51,2.51,0,0,0,.922,1.964,3.466,3.466,0,0,0,1.519.8c.364.068.72.078,1.085.113a2,2,0,0,0,1.414-.586,2,2,0,0,0,0-2.828l-.405-.313a1.987,1.987,0,0,0-1.009-.273c-.169-.016-.338-.013-.507-.034l.532.072a1.625,1.625,0,0,1-.349-.095l.478.2a1.887,1.887,0,0,1-.334-.194l.4.313a2.013,2.013,0,0,1-.22-.193l.313.405a.661.661,0,0,1-.081-.141l.2.478a.537.537,0,0,1-.026-.105l.071.531a1.086,1.086,0,0,1,0-.228l-.072.532a2.111,2.111,0,0,1,.141-.473l-.2.478q.153-.355.3-.713l-.2.478c.367-.866.8-1.711,1.235-2.542a2.1,2.1,0,0,0,.2-1.541,2.041,2.041,0,0,0-.919-1.2,2,2,0,0,0-2.737.717Z"/><path class="b" d="M71.856,82.639a42.232,42.232,0,0,0,6.892-6.86,38.821,38.821,0,0,0,4.006-5.821A2,2,0,1,0,79.3,67.939a32.137,32.137,0,0,1-1.839,2.932c-.613.9-1.1,1.527-1.666,2.235a42.158,42.158,0,0,1-6.767,6.705,2,2,0,0,0,0,2.828,2.059,2.059,0,0,0,2.828,0Z"/><path class="b" d="M61.551,84.424c-7.949,3.3-17.148,4.924-25.157.87a22.971,22.971,0,0,1-9.284-8.107,29.7,29.7,0,0,1-3.842-11.8c-.76-5.829-.815-11.76-1.365-17.614a2.054,2.054,0,0,0-2-2,2.015,2.015,0,0,0-2,2c.532,5.659.649,11.365,1.293,17.011A36.042,36.042,0,0,0,23.1,78.26C27.661,86.5,37.059,91.471,46.32,91.7a40.076,40.076,0,0,0,16.3-3.415,2.065,2.065,0,0,0,1.4-2.46,2.012,2.012,0,0,0-2.46-1.4Z"/><path class="b" d="M83.936,15.1c9.863,10.51,11,27.562,4.558,40.163-1.17,2.287,2.28,4.314,3.453,2.019,7.281-14.241,5.959-33.138-5.182-45.01C85,10.4,82.175,13.227,83.936,15.1Z"/><path class="b" d="M21.9,47.769c-1.129-10.332-.641-21.219,5.965-29.819A33.625,33.625,0,0,1,40.275,7.711,40.16,40.16,0,0,1,58.606,4.068a37.464,37.464,0,0,1,20.863,6.746,2.015,2.015,0,0,0,2.736-.717,2.045,2.045,0,0,0-.717-2.737C70.143-.8,54.134-2.039,41.248,2.975A36.651,36.651,0,0,0,18.384,29.733,59.218,59.218,0,0,0,17.9,47.769a2.061,2.061,0,0,0,2,2,2.012,2.012,0,0,0,2-2Z"/><path class="b" d="M57.482,32.456a35.923,35.923,0,0,1,4.938,2.533,26.583,26.583,0,0,1,3.613,2.679,35.772,35.772,0,0,1,4.119,4.238,39.81,39.81,0,0,1,4.469,6.872c1.2,2.281,4.65.261,3.454-2.019-3.653-6.962-9.154-13.143-16.25-16.7-.762-.382-1.543-.718-2.325-1.057a2.065,2.065,0,0,0-2.736.718,2.014,2.014,0,0,0,.718,2.736Z"/><path class="b" d="M22.106,48.722a7.574,7.574,0,0,1,1-2.333A34.25,34.25,0,0,1,25.306,43,35.268,35.268,0,0,1,31.164,36.6a12.487,12.487,0,0,1,1.163-.858c.515-.335.986-.311.016-.538-1.108-.259-.472-.227-.539.278a4.885,4.885,0,0,0,.024.578c-.015,1.762.442,3.432,2.383,3.919,1.468.368,2.753-.611,3.921-1.357,1.237-.791,2.46-1.6,3.709-2.379A32.667,32.667,0,0,1,52.69,31.534c2.524-.493,1.455-4.349-1.063-3.857a33.669,33.669,0,0,0-10.54,4.349c-1.392.823-2.747,1.7-4.1,2.584-.553.359-1.106.718-1.668,1.063-.114.071-.716.341-.723.432.019-.269,1.039.367.992.355q.288.548.231-.064l.013-.332C35.839,34.22,35.223,32,33.2,31.5c-1.569-.388-3.025.833-4.18,1.731a36.663,36.663,0,0,0-6.472,6.819c-1.694,2.22-3.66,4.827-4.3,7.607-.572,2.506,3.284,3.576,3.858,1.063Z"/><path class="b" d="M36.935,101.821a65,65,0,0,0,7.413-4.011,3.278,3.278,0,0,0,1.583-2.569c.057-.622.019-1.257.015-1.882q-.009-1.738-.019-3.479a2,2,0,0,0-4,0q.006,1.585.017,3.173c0,.568.013,1.138.009,1.706,0,.083-.078.479.007.214a1.144,1.144,0,0,1,.208-.481c.173-.2.158-.133-.049-.007l-.413.248q-3.308,1.977-6.79,3.634A2.01,2.01,0,0,0,34.2,101.1a2.054,2.054,0,0,0,2.737.718Z"/><path class="b" d="M14.348,130.285l-.064,9.216-.153,22-.185,26.742-.16,23.028c-.026,3.744-.221,7.531-.078,11.273,0,.054,0,.108,0,.162-.017,2.574,3.983,2.577,4,0l.064-9.216.153-22,.186-26.742.16-23.028c.026-3.744.221-7.531.078-11.273,0-.054,0-.108,0-.162.018-2.574-3.982-2.577-4,0Z"/><path class="b" d="M78.323,220.753q-10.906,0-21.812-.014L26.6,220.716q-5.446,0-10.893,0c-2.573,0-2.578,4,0,4q11.645,0,23.287.014l29.5.023q4.914,0,9.828,0c2.574,0,2.578-4,0-4Z"/><path class="b" d="M15.151,223.6c.2,9.444.52,18.885.822,28.326q.682,21.3,1.42,42.6.768,22.471,1.552,44.942.613,17.684,1.22,35.366.175,5.184.341,10.366a7.3,7.3,0,0,0,.526,3.178c1.21,2.4,3.773,2.466,6.124,2.7a80.616,80.616,0,0,0,15.32.313,33.068,33.068,0,0,0,6.818-1.247c2.449-.765,1.4-4.628-1.064-3.858-4.528,1.415-9.423,1.443-14.122,1.274-2.442-.088-4.88-.271-7.311-.518-.553-.057-1.846.077-2.192-.453a1.768,1.768,0,0,1-.082-.81q-.146-4.84-.315-9.682-.571-16.965-1.169-33.929-.761-21.9-1.515-43.8-.727-21.249-1.424-42.5c-.323-9.987-.653-19.974-.9-29.962q-.029-1.152-.053-2.3c-.055-2.57-4.056-2.579-4,0Z"/><path class="b" d="M45.97,256.386c.317,17.038.962,34.071,1.818,51.091q1.335,26.565,3.435,53.085,1.12,13.922,2.539,27.816a2.133,2.133,0,0,0,1.468,1.928,37.544,37.544,0,0,0,16.349,2.453,80.776,80.776,0,0,0,19.924-3.5c2.439-.79,1.4-4.653-1.063-3.858a76.387,76.387,0,0,1-18.861,3.355,34.754,34.754,0,0,1-15.285-2.31l1.468,1.929c-1.753-16.914-3.1-33.869-4.223-50.834q-1.763-26.558-2.768-53.157-.526-14-.8-28c-.048-2.571-4.048-2.58-4,0Z"/><path class="a" d="M182.883,397.566a21.892,21.892,0,0,0-.486-2.831,56.534,56.534,0,0,0,15.842-.3c0,.26,0,.425,0,.425.01,1.039,0,5.953,1.417,7.057a56.474,56.474,0,0,0-4.913,2.945c-1.255.841-2.547.051-3.456-1.156-2.186-2.905-5.17-4.734-7.071-4.78-.435,0-.847.025-1.229.063Q182.958,398.275,182.883,397.566Z"/><path class="a" d="M184.215,398.926c1.9.046,4.885,1.875,7.071,4.78.909,1.207,2.2,2,3.456,1.156a38.148,38.148,0,0,1,7.067-3.9c1.944,1.569,2.577,6.685,2.7,10.45a5.223,5.223,0,0,1-2.584,4.7,32.97,32.97,0,0,1-6.442,3.1c-6.346,1.937-9.961,5.526-15.74,7.359A29.163,29.163,0,0,1,168.1,427.69c-6.583-1.083-9.7-4.316-10.389-9.111-.376-2.637,2.806-5.375,4.971-7.066,2.485-1.94,6.837-4.147,10.083-6.233,3.62-2.327,5.1-6.308,11.455-6.354"/><path class="b" d="M184.215,400.926a7.164,7.164,0,0,1,3.675,2.023c1.513,1.367,2.545,3.484,4.626,4.092,2.156.629,3.765-.841,5.485-1.884a22.172,22.172,0,0,1,4.34-2.269l-1.946-.515a5.644,5.644,0,0,1,1.4,3,26.971,26.971,0,0,1,.656,4.8c.082,1.377.156,2.755-.952,3.772a18.468,18.468,0,0,1-4.857,2.7c-1.755.778-3.627,1.256-5.39,2.034-1.556.687-3.051,1.5-4.532,2.332a36.127,36.127,0,0,1-8.854,4,24.041,24.041,0,0,1-9.437.715c-2.619-.424-5.476-1.349-7.181-3.512a7.549,7.549,0,0,1-1.325-2.749,3.191,3.191,0,0,1,.6-3.192c1.86-2.5,4.753-4.226,7.385-5.78,3.075-1.814,6.225-3.445,8.842-5.908,2.249-2.118,4.247-3.591,7.468-3.66,2.57-.055,2.579-4.055,0-4a13.028,13.028,0,0,0-6.378,1.636,24.042,24.042,0,0,0-4.118,3.382c-3.179,2.967-7.4,4.606-10.965,7.053-3.475,2.384-7.745,5.858-6.906,10.549a11.62,11.62,0,0,0,6.419,8.43c4.347,2.1,9.128,2.193,13.815,1.463,4.628-.72,8.615-2.7,12.656-4.975a38.334,38.334,0,0,1,6.425-3.056,39.818,39.818,0,0,0,7.567-3.457,7.384,7.384,0,0,0,3.716-5.562,24.292,24.292,0,0,0-.568-7.023c-.383-2.031-1.031-4.411-2.655-5.821-1.221-1.061-2.562-.333-3.807.258a38.524,38.524,0,0,0-3.434,1.9c-.632.384-1.961,1.618-2.563,1.369-.491-.2-.917-1.053-1.257-1.456a15.455,15.455,0,0,0-1.444-1.5,11.028,11.028,0,0,0-6.5-3.194c-2.571-.155-2.562,3.846,0,4Z"/><path class="b" d="M196.238,394.86a31.911,31.911,0,0,0,.2,3.631,13.78,13.78,0,0,0,.5,2.626,4.74,4.74,0,0,0,1.306,2.217,2.161,2.161,0,0,0,1.414.586,2,2,0,0,0,1.414-3.414,2.8,2.8,0,0,1-.221-.215c-.195-.2.318.459.178.226-.03-.05-.064-.1-.093-.15-.064-.11-.111-.228-.171-.339.35.648.091.213.019-.009a10.845,10.845,0,0,1-.4-1.895l.072.532a31.268,31.268,0,0,1-.218-3.8,2,2,0,0,0-4,0Z"/><path class="b" d="M180.6,395.862q.168.8.277,1.6l-.071-.532q.106.807.157,1.619a2.116,2.116,0,0,0,.585,1.414,2,2,0,0,0,2.829,0,1.993,1.993,0,0,0,.586-1.414,26.214,26.214,0,0,0-.5-3.753,2,2,0,0,0-3.656-.478l-.2.478a2.018,2.018,0,0,0,0,1.063Z"/><path class="a" d="M213.025,397.181c.011-.45.023-.9.033-1.347,1.354-.015,2.7-.075,4.046-.147a57.44,57.44,0,0,0,11.479-1.638q.061,2.424.128,4.848a10.457,10.457,0,0,0,.247,2.384,3.519,3.519,0,0,0,1.256,1.991l1.053.76a40.477,40.477,0,0,0-6.858,3.83c-1.255.841-2.527.035-3.456-1.156-2.353-3.016-5.17-4.734-7.071-4.78-.336,0-.658.016-.964.04C212.948,400.374,212.986,398.773,213.025,397.181Z"/><path class="a" d="M213.882,401.926c1.9.046,4.718,1.764,7.071,4.78.929,1.191,2.2,2,3.456,1.156a38.148,38.148,0,0,1,7.067-3.9c1.944,1.569,2.577,6.685,2.7,10.45a5.222,5.222,0,0,1-2.583,4.7,32.95,32.95,0,0,1-6.443,3.1c-6.346,1.937-9.96,5.526-15.739,7.359a29.163,29.163,0,0,1-11.646,1.126c-6.583-1.083-9.7-4.316-10.389-9.111-.377-2.637,2.806-5.375,4.971-7.066,2.485-1.94,6.837-4.147,10.083-6.233,3.619-2.327,5.1-6.308,11.455-6.354"/><path class="a" d="M175.1,389.753C172.7,351.7,165.327,275.219,163.247,239.7l.386-26.717c2.489.079,51.053.242,69.007.29.553,3.882,1.031,7.192,1.031,7.192.268,7.2,2.318,21.846,2.035,38-.885,50.692-3.314,124.316-3.552,133.891-2.137,2.081-9.806,3.051-15.054,3.331-5.614.3-11.339.389-17.1-1.675-4.85,1.425-15.354,1.656-22.9-.214a2.469,2.469,0,0,1-1.887-2.237Q175.159,390.674,175.1,389.753Z"/><path class="e" d="M222.434,45.732c4.79,4.445,7.544,9.966,9.188,16.29a33.5,33.5,0,0,1,1.06,9.772c-.148,3.541-.973,6.915-1.4,10.4a50.443,50.443,0,0,0-.542,9.625,73.383,73.383,0,0,0,1.841,13.9c1.552,6.1,5.111,11.828,4.846,18.109a15.859,15.859,0,0,1-2.789,8.208s-5.022,6.376-21.718,4.388c-5.25-.625-16.4-2.288-21.75-3.625-4.927-1.231-19.822-4.446-19.822-4.446-4.083-1.25-9.083-5.25-8.081-9.6.384-1.667,1.688-6.518,1.779-9.989a89.85,89.85,0,0,0-.043-12.384c-.5-6.667-4.405-15.735-4.405-15.735a56.021,56.021,0,0,1,.069-19.226,35.189,35.189,0,0,1,7.475-15.548c6.34-7.115,15.646-11.315,27.1-11.613A33.479,33.479,0,0,1,217.327,41.3"/><path class="a" d="M186.554,140.3c-11.166-3.331-10.958-11.485-10.958-11.485a77.662,77.662,0,0,0,6.952-3.751,1.571,1.571,0,0,0,.542-.456,1.606,1.606,0,0,0,.167-.883c-.006-1.375-.013-3.341-.019-5.04A24.549,24.549,0,0,1,169.43,112.3c-5.2-4.582-7.286-11.586-7.849-19.267-.413-5.635-.7-11.887-1.461-17.98,4.435-3.879,9-8.242,13.26-12.426-.368,3.113-2.326,9.7-.249,9.084a40.506,40.506,0,0,0,21.318-14.818c1.087,4.176,2.621,9.375,3.969,11.9,1.931,3.62,7.971,11.628,12.977,13.155l1.294.487a8.043,8.043,0,0,0,5.511.058l1.336-.472a4.614,4.614,0,0,1,3.222-1.119,4.166,4.166,0,0,1,3.714,1.963c1.259,2.085,1.206,5.922.357,8.3a12.079,12.079,0,0,1-3.9,5.869,8.907,8.907,0,0,1-3.95,1.487l-.279.6c-.628,1.2-2.088,3.281-2.088,3.281a43.913,43.913,0,0,1-4.5,5.319c.023,2.936.07,6.806.111,8.413a5.638,5.638,0,0,0,2.274,4.548l4.6,2.029s.833,18.978-21.5,18.978A38.7,38.7,0,0,1,186.554,140.3Z"/><path class="f" d="M210.243,214.169l.826-.929-.915,0c-17.85-.07-41.637-.19-43.677-.25l-17.7-26.918c.731-7.642,1.449-15.259,2.736-24.034.416-2.839,1.1-6.277,1.777-9.066a33.414,33.414,0,0,1,14.621-20.613c2.683-1.722,7.026-3.786,10.765-5.6.588.852.955,1.382.955,1.382,1.1,1.587,4.141,2.32,6.05,2.6,6.42.949,13.86-.721,20.223-3.15a125.132,125.132,0,0,0,11.685-5.4l14.8,8.057a43.56,43.56,0,0,1,7.878,5.053c7.135,6.191,8.413,13.15,9.5,22.4.919,7.831,1.89,23.431,1.167,33.177-.667,8.984-.889,10.932-5.667,19.592-2.743,4.971-16.253,21.755-28.663,34.174-.519.52-1.239.3-1.784-.2a82.821,82.821,0,0,1-7.131-7.663,69.85,69.85,0,0,1-7.75-10.472s-.113-.18-.307-.486C202.254,223.037,206.133,218.782,210.243,214.169Z"/><path class="b" d="M192.613,57.78c1.439,5.438,2.955,10.833,6.262,15.453,3,4.193,6.9,8.99,11.988,10.643,2.454.8,3.5-3.063,1.064-3.857a14.084,14.084,0,0,1-5.193-3.636,39.842,39.842,0,0,1-4.758-5.669c-2.92-4.2-4.21-9.1-5.506-14-.658-2.486-4.518-1.432-3.857,1.063Z"/><path class="b" d="M193.007,55.51a40.952,40.952,0,0,1-14.83,12.2,35.682,35.682,0,0,1-4.433,1.722,5.269,5.269,0,0,0-1.145.345,1.479,1.479,0,0,1,1.531.677l.095.229q-.071-.316-.017.036l-.013-.195a7.54,7.54,0,0,1,.016-.781c.147-2.393.867-4.743,1.169-7.122.229-1.806-2.288-2.519-3.414-1.414-5.536,5.434-11.158,10.8-17.157,15.73-1.991,1.634.853,4.45,2.828,2.828,6-4.925,11.621-10.3,17.157-15.73l-3.414-1.414c-.306,2.413-1.366,5.425-1.172,8.1.1,1.459.882,2.954,2.538,3.012,1.582.056,3.4-.86,4.838-1.437a43.675,43.675,0,0,0,18.252-13.957,2.066,2.066,0,0,0,0-2.828,2.013,2.013,0,0,0-2.829,0Z"/><path class="b" d="M181.222,123.259c-4.211,2.165-8.573,4.049-12.691,6.392a35.768,35.768,0,0,0-10.369,8.823,36.166,36.166,0,0,0-6.512,12.846,117.013,117.013,0,0,0-2.887,16.175c-.794,6.177-1.393,12.375-1.986,18.574a2.014,2.014,0,0,0,2,2,2.044,2.044,0,0,0,2-2c1-10.484,1.817-21.107,4.167-31.394,2.006-8.784,6.944-16.385,14.754-21.074,4.343-2.607,9.044-4.575,13.543-6.888,2.29-1.177.268-4.63-2.019-3.454Z"/><path class="b" d="M161.992,153.3c-.634,3.928-1.233,7.865-1.712,11.815a41.833,41.833,0,0,0-.449,7.767c.33,5.059,1.158,10.084,1.431,15.145.138,2.561,4.139,2.577,4,0-.269-4.987-1.074-9.942-1.416-14.926a39.268,39.268,0,0,1,.346-7.25c.446-3.843,1.041-7.669,1.658-11.488a2.062,2.062,0,0,0-1.4-2.46,2.016,2.016,0,0,0-2.461,1.4Z"/><path class="b" d="M223.1,163.357c.758,9.55,1.4,19.109,2.27,28.65a2.054,2.054,0,0,0,2,2,2.014,2.014,0,0,0,2-2c-.868-9.541-1.512-19.1-2.27-28.65-.2-2.549-4.2-2.571-4,0Z"/><path class="b" d="M233.258,136.3a18.154,18.154,0,0,0-5.725,4.682,17.133,17.133,0,0,0-2.659,4.565c-.405,1.014-.666,2.069-1.011,3.1a2.015,2.015,0,0,0,1.4,2.46,2.047,2.047,0,0,0,2.46-1.4c.311-.932.547-1.885.9-2.805.057-.151.117-.3.177-.449-.175.438.043-.088.067-.14q.225-.487.486-.959.279-.5.6-.978c.112-.165.227-.33.347-.489-.184.245.22-.264.21-.252a21.549,21.549,0,0,1,1.531-1.666q.327-.32.674-.617c.105-.09.213-.177.319-.265.3-.254-.333.233,0,0a21,21,0,0,1,2.246-1.337,2.016,2.016,0,0,0,.717-2.736,2.045,2.045,0,0,0-2.736-.718Z"/><path class="b" d="M177.9,129.144c2.022,2.629,5.463,3.353,8.6,3.7a36.566,36.566,0,0,0,11.6-.831c7.45-1.6,14.117-5.017,20.915-8.309,2.316-1.122.29-4.572-2.019-3.454-5.952,2.883-11.747,5.869-18.2,7.5a36.935,36.935,0,0,1-10.189,1.246,20.177,20.177,0,0,1-4.24-.546c-.888-.222-2.413-.541-3.013-1.321a2.067,2.067,0,0,0-2.736-.718,2.013,2.013,0,0,0-.718,2.737Z"/><path class="b" d="M210.113,107.709c.019,2.33.042,4.659.082,6.989.035,2.027.118,3.974,1.349,5.689a6.52,6.52,0,0,0,2.121,2.1c.5.243,1.016.448,1.522.671l2.905,1.28a2.064,2.064,0,0,0,2.736-.717,2.015,2.015,0,0,0-.717-2.737l-2.639-1.163-1.585-.7c-.118-.052-.243-.1-.359-.158.4.2.024-.024-.124-.173-.092-.09-.181-.184-.268-.28-.159-.206-.206-.254-.138-.144a4.528,4.528,0,0,1-.352-.535c-.067-.115-.128-.231-.186-.35q.109.283-.012-.039c-.051-.169-.106-.336-.145-.509-.026-.111-.048-.223-.066-.335.031.254.035.264.011.032-.026-.776-.047-1.552-.059-2.328q-.052-3.3-.076-6.595c-.021-2.573-4.021-2.579-4,0Z"/><path class="b" d="M176.605,130.539a61.933,61.933,0,0,0,7.075-3.827,3.226,3.226,0,0,0,1.556-2.53c.053-.594.017-1.2.014-1.8q-.009-1.66-.019-3.32a2,2,0,0,0-4,0q.007,1.513.017,3.028c0,.542.012,1.085.009,1.628,0,.088-.08.466.007.192a1.2,1.2,0,0,1,.224-.512c.166-.187.194-.156-.028-.021q-.2.12-.394.237-3.156,1.887-6.48,3.467a2.012,2.012,0,0,0-.717,2.737,2.053,2.053,0,0,0,2.736.717Z"/><path class="b" d="M171.965,126.178c-2.793-.888-6.978-3.529-6.735-6.779a37.394,37.394,0,0,1,.991-4.392,37.771,37.771,0,0,0,.911-6.486c.089-2.574-3.911-2.571-4,0a35.492,35.492,0,0,1-1.038,6.643c-.437,1.912-1.079,3.782-.744,5.765.772,4.557,5.437,7.8,9.552,9.106,2.459.782,3.512-3.079,1.063-3.857Z"/><path class="b" d="M218.419,39.323a36.454,36.454,0,0,0-18.231-7.151,43.9,43.9,0,0,0-17.912,2.034A36.316,36.316,0,0,0,168.02,42.93a35.4,35.4,0,0,0-8.941,16.575,53.377,53.377,0,0,0-.324,21.428,2.017,2.017,0,0,0,2.461,1.4,2.044,2.044,0,0,0,1.4-2.46c-1.936-11.023-.69-24.125,7.029-32.827C176.776,39,187.585,35.6,198.13,36.033a32.767,32.767,0,0,1,18.27,6.744,2.015,2.015,0,0,0,2.737-.718,2.046,2.046,0,0,0-.718-2.736Z"/><path class="b" d="M220.95,83.434a2.872,2.872,0,0,1,2.6-.413,4.442,4.442,0,0,1,.436.143q-.23-.086.083.063c.1.06.462.334.188.1.16.135.29.292.437.44-.342-.344-.077-.121-.009.01a9,9,0,0,1,.5,5.869,10.327,10.327,0,0,1-2.879,5.283,5.467,5.467,0,0,1-2.076,1.252,4.57,4.57,0,0,1-3.012.2c-2.456-.791-3.508,3.07-1.063,3.857a9.324,9.324,0,0,0,7.271-1.142,12.191,12.191,0,0,0,4.721-5.846,14.944,14.944,0,0,0,1.268-6.866c-.144-2.169-.713-4.544-2.463-5.993a6.958,6.958,0,0,0-8.832.213,2.015,2.015,0,0,0,0,2.828,2.041,2.041,0,0,0,2.828,0Z"/><path class="b" d="M175.454,105.66c-.674-.493-.151-.1.074.085a7.084,7.084,0,0,0,1.107.777,8.6,8.6,0,0,0,3.683.929,10.231,10.231,0,0,0,6.791-2.1,2.005,2.005,0,0,0,0-2.829,2.064,2.064,0,0,0-2.829,0c.646-.5.233-.179.067-.069-.134.088-.272.172-.413.25-.17.1-.346.179-.522.266-.3.149.361-.129.124-.049-.112.037-.221.086-.332.125q-.364.129-.74.224a2.272,2.272,0,0,1-.765.157c.284-.035.311-.038.08-.011l-.156.015q-.242.021-.483.03a9.631,9.631,0,0,1-.976-.014c-.1-.006-.363.02-.436-.039l.26.036c-.085-.013-.171-.028-.256-.044-.211-.04-.421-.09-.628-.151-.1-.031-.2-.067-.3-.1-.318-.1.076.017.164.076-.138-.092-.312-.148-.456-.231-.125-.073-.243-.155-.363-.236-.146-.1-.289-.291.207.162-.041-.037-.087-.069-.128-.1-.245-.212-.493-.413-.756-.605a2.007,2.007,0,0,0-2.736.717,2.058,2.058,0,0,0,.717,2.737Z"/><path class="b" d="M194.351,84.473c.561,1.5.462,5.046-2.422,5.517-3.837.2-4.293-4.045-3.12-6.125C189.77,82.163,192.838,81.3,194.351,84.473Z"/><path class="b" d="M172.909,84.66c.451,1.561.271,5.17-2.26,5.514-3.357.026-3.643-4.33-2.564-6.4C168.969,82.087,171.671,81.349,172.909,84.66Z"/><path class="b" d="M177.132,91.282a32.521,32.521,0,0,0-1.425,3.015l.2-.478a4,4,0,0,0-.461,1.675,2.483,2.483,0,0,0,.906,1.938,3.4,3.4,0,0,0,1.487.781c.356.066.7.076,1.058.111a2.01,2.01,0,0,0,1.415-.586,2,2,0,0,0,0-2.828l-.405-.313a1.991,1.991,0,0,0-1.01-.273c-.16-.016-.321-.012-.481-.032l.532.071a1.509,1.509,0,0,1-.332-.09l.478.2a1.774,1.774,0,0,1-.319-.184l.405.312a1.733,1.733,0,0,1-.209-.183l.312.405a.638.638,0,0,1-.077-.134l.2.478a.5.5,0,0,1-.026-.1l.072.532a1.049,1.049,0,0,1,0-.217l-.071.532a2.061,2.061,0,0,1,.133-.45l-.2.478c.1-.234.2-.467.3-.7l-.2.478c.349-.824.756-1.628,1.175-2.418a2.106,2.106,0,0,0,.2-1.541,2.041,2.041,0,0,0-.919-1.2,2,2,0,0,0-2.737.717Z"/><path class="b" d="M210.043,112.216a40.231,40.231,0,0,0,6.556-6.526,37.006,37.006,0,0,0,3.827-5.558,2,2,0,1,0-3.454-2.019,30.522,30.522,0,0,1-1.749,2.79c-.148.216-.3.431-.45.643-.222.3-.449.6-.677.9.17-.222-.016.021-.091.116-.116.148-.234.3-.352.442a40.094,40.094,0,0,1-6.438,6.38,2,2,0,0,0,0,2.828,2.06,2.06,0,0,0,2.828,0Z"/><path class="b" d="M200.145,113.751c-7.586,3.143-16.332,4.681-23.961.786a21.7,21.7,0,0,1-8.76-7.731,28.318,28.318,0,0,1-3.608-11.334c-.669-5.468-.751-11.013-1.266-16.5a2.055,2.055,0,0,0-2-2,2.014,2.014,0,0,0-2,2c.5,5.355.62,10.752,1.219,16.1a34.466,34.466,0,0,0,3.742,12.965c4.339,7.837,13.271,12.584,22.084,12.826a38.134,38.134,0,0,0,15.613-3.251,2.065,2.065,0,0,0,1.4-2.46,2.013,2.013,0,0,0-2.46-1.4Z"/><path class="b" d="M221.1,46.9a30.2,30.2,0,0,1,8,13.075,34.161,34.161,0,0,1,1.652,8.755,44.751,44.751,0,0,1-.828,9.385c-.489,2.96-.888,5.95-1.082,8.946a55.82,55.82,0,0,0,.237,8.227A68.958,68.958,0,0,0,230.4,104.6a62.807,62.807,0,0,0,2.695,8.359,31.537,31.537,0,0,1,2.4,8.922,14.242,14.242,0,0,1-2.5,8.9c-1.428,2.151,2.035,4.156,3.454,2.019,3.5-5.28,3.652-11.337,1.8-17.245-.907-2.888-2.129-5.666-3.052-8.549a47.466,47.466,0,0,1-1.891-9.414,67.973,67.973,0,0,1-.524-9.028,67.272,67.272,0,0,1,.933-8.92,56.3,56.3,0,0,0,1.077-9.979,37.174,37.174,0,0,0-1.475-9.6,34.867,34.867,0,0,0-9.382-16c-1.873-1.763-4.708,1.06-2.828,2.829Z"/><path class="b" d="M166.477,214.987c10.428.287,20.882.15,31.313.2q6.182.029,12.364.053c2.574.01,2.577-3.99,0-4q-19.729-.078-39.458-.2c-1.406-.011-2.814-.009-4.219-.047-2.575-.071-2.573,3.929,0,4Z"/><path class="b" d="M197.79,228.1a29.522,29.522,0,0,1-4.251,4.407c-.365.33-.729.668-1.114.974a1.25,1.25,0,0,1-1.17.309,16.391,16.391,0,0,0-3.415.1,23.009,23.009,0,0,0-13.214,6.861c-1.754,1.882,1.068,4.716,2.828,2.828,3.091-3.316,8.081-5.952,12.7-5.862,1.343.026,2.608.264,3.843-.456a16.183,16.183,0,0,0,2.6-2.131,31.762,31.762,0,0,0,4.651-5.011,2.017,2.017,0,0,0-.717-2.736,2.042,2.042,0,0,0-2.737.717Z"/><path class="b" d="M210.647,240.408a62.776,62.776,0,0,0-7.133,3.887,9.611,9.611,0,0,0-2.969,2.447c-.766,1.027-1.506,2.065-2.322,3.054a31.583,31.583,0,0,1-5.249,5.347,12.2,12.2,0,0,1-3.066,1.668,8.79,8.79,0,0,0-3.342,1.882c-1.83,1.816,1,4.645,2.828,2.829a7.613,7.613,0,0,1,2.617-1.258,15.115,15.115,0,0,0,3.39-1.976,34.261,34.261,0,0,0,5.381-5.339c.833-.993,1.632-2.017,2.4-3.062a8.011,8.011,0,0,1,.927-1.225,9.035,9.035,0,0,1,1.424-.913,62.77,62.77,0,0,1,7.132-3.888,2.013,2.013,0,0,0,.718-2.736,2.048,2.048,0,0,0-2.736-.717Z"/><path class="b" d="M166.024,232.264a13.514,13.514,0,0,0,3.261,2q1.71.9,3.336,1.959c.482.312.96.632,1.423.973.067.049.373.3.07.05.109.091.221.178.329.27q.292.247.567.513c.2.2.384.406.574.612.251.273-.076-.139.044.052.073.116.157.225.229.341.058.093.113.187.165.283,0,0,.231.455.112.2s.057.166.074.22c.05.158.089.319.125.481a2.017,2.017,0,0,0,2.461,1.4,2.047,2.047,0,0,0,1.4-2.461c-.594-2.653-2.738-4.494-4.889-5.949q-1.643-1.112-3.387-2.067c-.6-.329-1.2-.639-1.814-.944-.259-.128-.516-.258-.765-.405q-.185-.11-.363-.231c.282.191-.02-.029-.121-.126a2,2,0,0,0-2.828,2.828Z"/><path class="b" d="M164.387,256.648c1.826,1.507,3.434,3.258,5.316,4.7a27.237,27.237,0,0,0,6.532,3.537c2.18.873,4.488,1.8,6.885,1.535a5.056,5.056,0,0,0,3.928-2.212,5.358,5.358,0,0,0-.234-5.1,2,2,0,0,0-3.453,2.019c.32.648.449,1.07-.251,1.267a4.3,4.3,0,0,1-2.153-.084,31.16,31.16,0,0,1-4.813-1.766,20.9,20.9,0,0,1-4.7-2.887c-1.448-1.238-2.762-2.617-4.233-3.83a2.056,2.056,0,0,0-2.828,0,2.015,2.015,0,0,0,0,2.828Z"/><path class="b" d="M168.431,251.382a23.309,23.309,0,0,0,7.011,6c1.356.754,2.771,1.447,4.172,2.114a14.762,14.762,0,0,0,4.655,1.5,4.317,4.317,0,0,0,4.087-1.605,5.063,5.063,0,0,0,.73-4.382c-.492-1.636-1.837-2.46-3.231-3.27s-2.8-1.576-4.117-2.5a31.013,31.013,0,0,1-7.072-6.861,2.062,2.062,0,0,0-2.736-.718,2.015,2.015,0,0,0-.718,2.737,35.782,35.782,0,0,0,5.519,6,45.5,45.5,0,0,0,6.843,4.648c.481.277,1.1.594,1.5.887.18.131.081.021.2.242-.074-.134,0,.1,0,.116.008.13-.037.611-.027.536.026-.18-.086.3-.02.115-.026.074-.264.168-.112.1.066-.027.143-.013-.05.007a2.66,2.66,0,0,1-.542-.023,10.461,10.461,0,0,1-3.032-1.049c-1.225-.592-2.452-1.2-3.655-1.841a20.492,20.492,0,0,1-6.579-5.583,2.011,2.011,0,0,0-2.829,0,2.051,2.051,0,0,0,0,2.828Z"/><path class="b" d="M198.207,227.311a106.5,106.5,0,0,0,11.115,14.4c1.081,1.2,2.2,2.378,3.377,3.49,1.375,1.3,3.1,2.413,4.91,1.158a24.266,24.266,0,0,0,3.282-3.248q1.895-1.968,3.747-3.976,6.6-7.152,12.76-14.707a140.863,140.863,0,0,0,8.565-11.295,40.345,40.345,0,0,0,5.863-12.866c1.184-5.263,1.313-10.912,1.351-16.286.044-6.162-.235-12.331-.69-18.475a116.485,116.485,0,0,0-2.03-16.331,27.486,27.486,0,0,0-9.813-16.141c-3.28-2.565-7.054-4.416-10.7-6.4L218.312,120.3c-2.261-1.231-4.283,2.222-2.019,3.454l9.911,5.4c3.16,1.721,6.4,3.349,9.449,5.256a23.14,23.14,0,0,1,9.973,12.251c1.608,4.809,2.087,9.979,2.544,15q.753,8.273.952,16.588a140.507,140.507,0,0,1-.518,16.643,30.074,30.074,0,0,1-1.124,6.143,39.345,39.345,0,0,1-3.076,6.818,66.289,66.289,0,0,1-6.186,9.163c-3.534,4.571-7.252,9-11.06,13.345q-3.471,3.958-7.074,7.8-1.854,1.971-3.751,3.9a8.762,8.762,0,0,0-.861.871q1.158.361.58-.072-.264-.24-.524-.487c-.772-.728-1.518-1.483-2.245-2.255a96.922,96.922,0,0,1-11.622-14.825c-1.366-2.175-4.828-.17-3.454,2.019Z"/><path class="b" d="M227.146,191.068q-.393.556-.8,1.1c-.422.563-.35.468-.819,1.064q-1.228,1.561-2.5,3.092c-2.138,2.594-4.321,5.15-6.519,7.692q-7.05,8.149-14.322,16.105c-1.863,2.036-3.731,4.071-5.663,6.043-1.8,1.84,1.022,4.67,2.828,2.828,4.094-4.177,7.985-8.563,11.878-12.926,4.793-5.372,9.546-10.784,14.141-16.326,1.8-2.169,3.608-4.351,5.233-6.655,1.487-2.107-1.98-4.108-3.454-2.018Z"/><path class="b" d="M232.224,228.017c.578,6.773,1.146,13.547,1.38,20.342.235,6.838.042,13.676-.1,20.514q-.378,18.879-.88,37.755-.481,18.585-1.025,37.167-.438,15.088-.9,30.178c-.177,5.807-.364,11.614-.524,17.422-.009.321-.017.641-.025.962l.586-1.415c-.329.3.1.016-.15.125-.17.074-.327.2-.492.292a7.027,7.027,0,0,1-.993.428,23.668,23.668,0,0,1-2.972.805,54.259,54.259,0,0,1-6.966.957c-5.8.465-11.74.625-17.372-1.041-2.473-.732-3.53,3.127-1.063,3.857a43.308,43.308,0,0,0,13.837,1.437,79.18,79.18,0,0,0,11.4-1.111,25.347,25.347,0,0,0,4.6-1.2c1.335-.515,3.283-1.283,3.549-2.872a22.077,22.077,0,0,0,.11-2.945q.358-12.343.747-24.687.6-19.789,1.15-39.582.621-22.461,1.137-44.925.236-10.578.427-21.157a261.439,261.439,0,0,0-1.025-26.133c-.143-1.726-.293-3.452-.44-5.177-.218-2.546-4.22-2.569-4,0Z"/><path class="b" d="M189.267,266.94c.069,5.924.471,11.852.8,17.765q.835,14.841,1.831,29.672,1.1,16.752,2.294,33.5,1.031,14.4,2.164,28.8c.43,5.34.773,10.713,1.47,16.027.052.4.1.792.17,1.185a2.016,2.016,0,0,0,2.46,1.4,2.045,2.045,0,0,0,1.4-2.46c-.071-.408-.107-.8-.043-.238-.041-.365-.09-.728-.131-1.092-.113-1-.212-2.008-.308-3.012-.295-3.08-.553-6.162-.807-9.245-.76-9.259-1.446-18.523-2.115-27.789q-1.2-16.558-2.291-33.123-1.011-15.269-1.915-30.545c-.378-6.517-.791-13.043-.956-19.57-.01-.424-.019-.847-.024-1.271-.03-2.572-4.03-2.579-4,0Z"/><path class="b" d="M226.642,396.341c.038,1.393,0,2.813.172,4.2a7.722,7.722,0,0,0,.721,2.575,5.323,5.323,0,0,0,1.67,1.886,2,2,0,0,0,1.541.2,2.044,2.044,0,0,0,1.195-.919,2.022,2.022,0,0,0,.2-1.541,2.343,2.343,0,0,0-.92-1.2c.473.357.178.135.075.031-.074-.074-.136-.175-.216-.242.2.264.239.311.122.14l-.058-.092c-.067-.11-.121-.225-.181-.338-.095-.178.181.488.034.072-.036-.1-.069-.208-.1-.314a6.315,6.315,0,0,1-.158-.8l.071.531c-.176-1.383-.134-2.805-.172-4.2a2,2,0,0,0-4,0Z"/><path class="b" d="M211.024,397.065l-.109,4.958a2,2,0,0,0,4,0l.109-4.958a2.018,2.018,0,0,0-2-2,2.038,2.038,0,0,0-2,2Z"/><path class="b" d="M213.882,403.926a7.012,7.012,0,0,1,3.6,1.974c1.525,1.375,2.616,3.521,4.7,4.135,2.154.634,3.76-.835,5.478-1.878a22.18,22.18,0,0,1,4.341-2.269l-1.946-.515a5.644,5.644,0,0,1,1.4,3,26.969,26.969,0,0,1,.655,4.8c.083,1.377.157,2.755-.952,3.772a18.446,18.446,0,0,1-4.856,2.7c-1.755.778-3.628,1.256-5.39,2.034-1.556.687-3.051,1.5-4.532,2.332a36.134,36.134,0,0,1-8.855,4,24.038,24.038,0,0,1-9.437.715c-2.618-.424-5.475-1.349-7.181-3.512a7.547,7.547,0,0,1-1.324-2.749,3.189,3.189,0,0,1,.6-3.192c1.86-2.5,4.753-4.226,7.385-5.78,3.074-1.814,6.225-3.445,8.842-5.908,2.248-2.118,4.247-3.591,7.468-3.66,2.57-.055,2.579-4.055,0-4a13.025,13.025,0,0,0-6.378,1.636,24,24,0,0,0-4.118,3.382c-3.179,2.967-7.4,4.606-10.965,7.053-3.475,2.384-7.745,5.858-6.906,10.549a11.618,11.618,0,0,0,6.419,8.43c4.347,2.1,9.128,2.193,13.814,1.463,4.629-.72,8.616-2.7,12.657-4.975a38.334,38.334,0,0,1,6.425-3.056,39.81,39.81,0,0,0,7.566-3.457,7.382,7.382,0,0,0,3.717-5.562,24.327,24.327,0,0,0-.568-7.023c-.383-2.031-1.031-4.411-2.655-5.821-1.222-1.061-2.563-.333-3.808.258a38.506,38.506,0,0,0-3.433,1.9q-.831.5-1.644,1.033c-.43.28-.488.5-.91.329-.5-.2-.95-1.066-1.3-1.472a17.035,17.035,0,0,0-1.483-1.521,10.829,10.829,0,0,0-6.43-3.146c-2.572-.15-2.563,3.851,0,4Z"/><path class="b" d="M162.718,260.94c1.653,21.817,3.555,43.614,5.4,65.415,1.713,20.239,3.473,40.48,4.808,60.748.147,2.236-.191,5.274,1.289,7.1,1.024,1.261,2.453,1.587,3.973,1.891,1.569.314,3.158.536,4.748.708,5.628.607,11.736.678,17.254-.76,2.489-.648,1.434-4.507-1.064-3.857-4.622,1.205-9.679,1.145-14.406.781-1.264-.1-2.526-.227-3.779-.427-.626-.1-1.252-.211-1.873-.339a4.559,4.559,0,0,1-1.654-.4c-.417-.356-.279-1.435-.312-1.951q-.09-1.44-.186-2.882c-.592-8.974-1.286-17.942-2-26.907-1.731-21.637-3.621-43.261-5.433-64.892q-1.434-17.107-2.762-34.224c-.193-2.551-4.195-2.572-4,0Z"/><path class="b" d="M162.5,258.7a22.065,22.065,0,0,0,5.391,4.367,23.346,23.346,0,0,0,3.241,1.524c1.29.5,3.069.8,4.058-.467a2.187,2.187,0,0,0,.585-1.414,2,2,0,0,0-3.414-1.414c-.242.31.473-.224.513-.236.625-.184.218.051.1-.025-.194-.128.368.107.139.013-.078-.032-.171-.046-.253-.071-.225-.072-.446-.158-.666-.244-.1-.038-.2-.079-.3-.119-.484-.192.23.111-.043-.018a24.848,24.848,0,0,1-2.5-1.314q-.584-.36-1.141-.761c-.087-.063-.174-.126-.26-.19s-.377-.3-.044-.03c-.168-.135-.336-.269-.5-.407a20.493,20.493,0,0,1-2.082-2.022,2.013,2.013,0,0,0-2.828,0,2.046,2.046,0,0,0,0,2.828Z"/><path class="a" d="M131.9,157.343c.021,2.558.062,5.935.1,7.337a4.9,4.9,0,0,0,1.98,3.96l3,1.5s-5.472,13.833-16.972,13.833c-19,0-16.612-9.928-16.612-9.928q1.4-.762,2.763-1.59a1.373,1.373,0,0,0,.473-.4,1.4,1.4,0,0,0,.145-.769c-.008-1.651-.015-2.4-.023-4.054v-9.318Z"/><path class="a" d="M107.367,166.968a21.376,21.376,0,0,1-12.633-5.632c-4.531-3.99-6.344-10.089-6.835-16.777-.283-3.857-1.043-8.03-.9-12.239,0,0,0-1.713,0-3.742,0-6.775,3.758-14.441,13.925-17.108,11.968-3.139,22.5-.5,29,4.246,10.9,7.959,8.44,19.258,8.44,19.258A4.017,4.017,0,0,1,141.17,134a3.629,3.629,0,0,1,3.234,1.709c1.1,1.816,1.05,5.157.311,7.228a10.524,10.524,0,0,1-3.4,5.111,7.711,7.711,0,0,1-3.522,1.3c-.8,1.4-1.978,3.374-1.978,3.374a35.3,35.3,0,0,1-6.951,7.314s-2.211,1.6-3.211,2.21-3.714,2.037-3.714,2.037a39.089,39.089,0,0,1-8.108,2.442,29.255,29.255,0,0,1-2.933.3A25.073,25.073,0,0,1,107.367,166.968Z"/><path class="a" d="M103.747,396.526a80.822,80.822,0,0,0,14.508-1.548c0,.74.012,1.49.012,1.49a35.162,35.162,0,0,0,.445,5.833l.03.144a51.423,51.423,0,0,0-5.032,2.983,3.2,3.2,0,0,1-3.837-.441c-2.006-1.771-4.3-3.75-6.083-3.75l-.231,0c-.015-.1-.024-.153-.024-.153a43.272,43.272,0,0,1-.558-4.556C103.234,396.531,103.491,396.529,103.747,396.526Z"/><path class="b" d="M116.267,396.468a30.9,30.9,0,0,0,.516,6.365,2.017,2.017,0,0,0,2.46,1.4,2.045,2.045,0,0,0,1.4-2.461c-.073-.318-.126-.641-.17-.965l.071.532a42.113,42.113,0,0,1-.274-4.868,2,2,0,0,0-4,0Z"/><path class="b" d="M101.012,397.112c.12,1.509.348,3.013.594,4.506a2.01,2.01,0,0,0,.919,1.195,2,2,0,0,0,2.737-.718l.2-.477a2,2,0,0,0,0-1.064q-.168-1.02-.307-2.043l.071.531c-.086-.641-.164-1.284-.215-1.93a2.135,2.135,0,0,0-.586-1.414,2,2,0,0,0-2.828,0,1.966,1.966,0,0,0-.586,1.414Z"/><path class="a" d="M100,425.7q-.192.065-.387.126a27.4,27.4,0,0,1-10.945,1.059c-6.187-1.018-8.7-3.131-9.343-7.637-.354-2.479,2.216-5.978,4.251-7.567,2.335-1.823,6.426-3.9,9.476-5.859,3.4-2.187,6.156-4.583,10.74-4.583,1.787,0,4.077,1.979,6.083,3.75a3.2,3.2,0,0,0,3.837.441,35.768,35.768,0,0,1,6.642-3.668c1.827,1.474,2.422,6.283,2.535,9.821A4.9,4.9,0,0,1,120.459,416a31.006,31.006,0,0,1-6.055,2.913C108.583,420.685,105.207,423.941,100,425.7Z"/><path class="b" d="M99.466,423.769c-4.516,1.477-9.573,1.886-14.1.249-3.08-1.113-5.1-4.265-3.358-7.415,2.429-4.395,7.676-6.288,11.722-8.845a43.565,43.565,0,0,1,6.077-3.719,9.981,9.981,0,0,1,3.352-.785,4.658,4.658,0,0,1,3.08,1.276,24.169,24.169,0,0,0,3.508,2.76,5.167,5.167,0,0,0,4.193.242c2.448-.965,4.406-3,6.945-3.844l-1.946-.514c1.64,1.45,1.723,4.769,1.867,6.8.086,1.222.289,2.552-.525,3.588-.917,1.168-2.8,1.851-4.1,2.485-1.461.714-3.025,1.114-4.529,1.722a41.359,41.359,0,0,0-4.209,1.992,54.8,54.8,0,0,1-7.977,4.009c-2.416.839-1.377,4.7,1.064,3.857,4.1-1.423,7.608-3.952,11.541-5.721,2.149-.967,4.423-1.538,6.536-2.607,2.08-1.053,4.372-2.145,5.483-4.317,1.017-1.987.828-4.166.6-6.314a20.56,20.56,0,0,0-1.33-5.949c-.773-1.814-2.083-3.5-4.229-2.629a34.722,34.722,0,0,0-5.524,3.018c-.636.408-1.206,1.006-2,.659a13.5,13.5,0,0,1-2.451-2c-1.7-1.347-3.537-2.587-5.8-2.527-4.565.122-7.965,2.729-11.655,5.06-5.947,3.757-16.981,8.457-13.843,17.492,1.32,3.8,4.607,5.757,8.378,6.643a26.8,26.8,0,0,0,14.285-.813C102.966,426.829,101.923,422.965,99.466,423.769Z"/><path class="a" d="M136.694,405.8a10.35,10.35,0,0,0-4.432-1.537c-.115,0-.228,0-.331.006l.081-2.249.1-3.367.1-2.513c.644.017,1.217.016,1.719-.008a77.363,77.363,0,0,0,12.832-1.5c0,.483,0,.836,0,.836.022.8.07,4.553.091,5.354a9.829,9.829,0,0,0,.233,2.24,6.36,6.36,0,0,0,1.468,2.711l.11.109a44.292,44.292,0,0,0-5.854,3.366c-1.18.79-2.331,0-3.248-1.087A11.287,11.287,0,0,0,136.694,405.8Z"/><path class="b" d="M144.767,395.468c.042,1.625.051,3.251.081,4.876a12.032,12.032,0,0,0,.4,3.544,7.171,7.171,0,0,0,1.894,3.3,2.053,2.053,0,0,0,2.828,0,2.022,2.022,0,0,0,0-2.829c-.081-.064-.146-.132-.221-.2-.257-.239.222.38.02.021-.113-.2-.24-.392-.345-.6-.065-.127-.125-.256-.186-.385-.206-.436.144.405-.009-.026-.065-.182-.134-.362-.188-.548-.043-.151-.074-.3-.107-.457-.12-.569.011.369-.027-.213-.02-.314-.037-.627-.047-.941s-.014-.619-.02-.929c-.026-1.538-.036-3.076-.076-4.613a2,2,0,0,0-4,0Z"/><path class="b" d="M130.114,398.655l-.1,3.367a2,2,0,0,0,2,2,2.021,2.021,0,0,0,1.415-.586,2.128,2.128,0,0,0,.585-1.414l.1-3.367a2,2,0,0,0-2-2,2.018,2.018,0,0,0-1.414.586,2.134,2.134,0,0,0-.586,1.414Z"/><path class="a" d="M129.41,429.411c-.228.081-.459.158-.694.233a27.388,27.388,0,0,1-10.945,1.058c-6.188-1.018-9.121-4.056-9.764-8.563-.355-2.478,2.637-5.052,4.671-6.64,2.336-1.824,6.426-3.9,9.477-5.859,3.4-2.187,4.136-5.332,10.107-5.375a11.85,11.85,0,0,1,7.305,3.9c.917,1.084,2.068,1.877,3.248,1.087a35.749,35.749,0,0,1,6.642-3.669c1.827,1.475,2.422,6.283,2.535,9.821a4.908,4.908,0,0,1-2.428,4.416,31,31,0,0,1-6.055,2.912C137.8,424.469,134.446,427.632,129.41,429.411Z"/><path class="b" d="M128.879,427.482c-4.549,1.566-10.262,2.277-14.729.088a7.131,7.131,0,0,1-3.666-3.747,4.768,4.768,0,0,1-.467-2.394c.211-1.135,1.361-2.16,2.158-2.9,3.843-3.576,9.021-5.215,12.943-8.657,1.235-1.084,2.3-2.406,3.848-3.05a6.755,6.755,0,0,1,5.849.238,11.208,11.208,0,0,1,3.338,2.517c1.168,1.251,2.687,2.311,4.491,1.9,1.449-.334,2.8-1.56,4.067-2.3a18.013,18.013,0,0,1,3.278-1.659l-1.946-.515c1.6,1.419,1.7,4.626,1.854,6.616.1,1.271.326,2.688-.512,3.772-.863,1.115-2.669,1.774-3.9,2.384-1.47.731-3.028,1.148-4.549,1.749a39.748,39.748,0,0,0-4.249,1.989,60.012,60.012,0,0,1-7.812,3.979c-2.4.872-1.365,4.739,1.063,3.858,4.252-1.543,7.882-4.292,12.061-5.969a62.285,62.285,0,0,0,6.936-2.9c2.105-1.151,3.952-2.393,4.726-4.789.671-2.079.242-4.548-.055-6.664a13.852,13.852,0,0,0-1.779-5.718,3.142,3.142,0,0,0-2.374-1.718,6.985,6.985,0,0,0-2.822,1.063c-.891.453-1.759.954-2.614,1.471q-.738.446-1.464.914c-.2.131-.4.27-.6.4-.289.178.161.219-.176.089-.417-.161-.742-.726-1.035-1.038a11.875,11.875,0,0,0-1.214-1.116,14.741,14.741,0,0,0-2.848-1.829,10.585,10.585,0,0,0-5.647-1.206,11,11,0,0,0-5.285,1.722,37.735,37.735,0,0,0-3.458,3,32.381,32.381,0,0,1-5.235,3.319,50.237,50.237,0,0,0-5.79,3.723,16.7,16.7,0,0,0-4.383,4.576,6.864,6.864,0,0,0-.432,5.7c2.946,9.621,15.666,9.676,23.493,6.982C132.362,430.507,131.322,426.641,128.879,427.482Z"/><path class="g" d="M91.88,391.905q.092,1.73.212,3.457c8.225,2.091,19.225,1.048,26.556-.464,7.258.8,12.427,1.369,15.286,1.236a74.668,74.668,0,0,0,13.693-1.695,2.317,2.317,0,0,0,1.717-2.226l3.474-122.874-.053-6.741H138.373c-15.18,0-31.579.068-46.892.073.251,28.476.525,58.774.375,86.778C91.78,363.6,91.131,377.775,91.88,391.905Z"/><path class="b" d="M150.818,269.339l-.405,14.317-.947,33.486L148.379,355.6l-.826,29.236-.19,6.7c-.028.977-.085.942-1.274,1.194a59.792,59.792,0,0,1-14.046,1.4c-2.542-.08-5.08-.353-7.609-.614a2.014,2.014,0,0,0-2,2,2.045,2.045,0,0,0,2,2c2.627.272,5.267.561,7.91.622a60.173,60.173,0,0,0,7.693-.462,69.7,69.7,0,0,0,6.968-1.061c2.4-.5,4.171-1.778,4.339-4.412.088-1.382.079-2.778.118-4.162l.751-26.587,1.086-38.409,1-35.534c.168-5.954.573-11.956.506-17.913,0-.089,0-.178.008-.266.072-2.575-3.928-2.573-4,0Z"/><path class="a" d="M148.993,273.481c-.687,1.63-.021,3.523-.371,5.256-.405,2.006-2.07,3.466-3.268,5.126-3.236,4.484-3.071,10.492-2.771,16.014a5.511,5.511,0,0,0,.7,2.886,1.9,1.9,0,0,0,2.6.627l1.2-.978-.062,7.762a14.064,14.064,0,0,0,.122,2.368c1.406.669.984,2.63,1.925,3.941a2.069,2.069,0,0,0,1.512.89c1.037.058,1.824-.792,2.758-1.2a18.414,18.414,0,0,1,3.028-.628,7.926,7.926,0,0,0,4.182-3.079,17.074,17.074,0,0,0,3.3-7.275c.2-1.062.624-5.98.744-7.365.177-3.521.718-7.932-.763-11.38a30.442,30.442,0,0,1-1.813-4.048c-.713-2.691.329-5.619-.412-8.3"/><path class="b" d="M147.065,272.95c-.595,1.668-.173,3.278-.345,4.977-.146,1.442-1.2,2.525-2.068,3.6a18,18,0,0,0-3.886,9.017,44.68,44.68,0,0,0-.146,9.9,5.807,5.807,0,0,0,1.863,4.331,3.794,3.794,0,0,0,4.408.341c2.155-1.392.152-4.856-2.018-3.454-.119.077.2.093.123.012s-.159-.124-.18-.242a12.607,12.607,0,0,1-.233-1.556c-.082-1.364-.139-2.731-.148-4.1a23.588,23.588,0,0,1,.977-7.672c.831-2.5,2.65-4.145,4.041-6.3a7.9,7.9,0,0,0,1.267-3.885c.075-1.324-.253-2.637.2-3.914.865-2.429-3-3.475-3.857-1.063Z"/><path class="b" d="M145.154,292.877l-.1,12.862c-.016,2.062-.169,4.183.015,6.239a6.29,6.29,0,0,0,2.347,4.821,3.917,3.917,0,0,0,4.968-.456,8.144,8.144,0,0,0,2.222-5.087c.515-4,.5-8.123.721-12.152.138-2.572-3.862-2.565-4,0-.179,3.343-.351,6.687-.538,10.029a9.057,9.057,0,0,1-.658,3.6,3.18,3.18,0,0,1-.354.559c-.264.333-.369.185-.171.225.215.045-.078-.119-.1-.2-.107-.324-.247-.479-.332-.822a16.782,16.782,0,0,1-.137-4.1l.042-5.322.081-10.2c.02-2.575-3.98-2.577-4,0Z"/><path class="b" d="M159.673,274.624c.444,1.839.048,3.738.078,5.6a12.545,12.545,0,0,0,1.568,5.622c1.7,3.352,1.588,6.741,1.362,10.413-.152,2.468-.369,4.933-.637,7.391-.03.272-.059.545-.095.817-.028.211.051-.257-.021.124a16.931,16.931,0,0,1-.737,2.689,14.115,14.115,0,0,1-2.656,4.478,6.307,6.307,0,0,1-1.933,1.574,10.67,10.67,0,0,1-2.7.589,7.457,7.457,0,0,0-2.481,1.025c-.882.533-.787.493-1.069-.584-.651-2.488-4.51-1.433-3.857,1.063.577,2.2,2.169,4.219,4.68,3.895a6.864,6.864,0,0,0,2.559-1.1,8.516,8.516,0,0,1,2.776-.67c4.2-.823,6.932-5.118,8.384-8.808,1.165-2.959,1.274-6.2,1.553-9.334.327-3.683.709-7.509,0-11.168a14,14,0,0,0-1.178-3.414,13.622,13.622,0,0,1-1.431-3.392c-.47-2.611.322-5.242-.313-7.874-.6-2.5-4.463-1.442-3.858,1.063Z"/><path class="b" d="M155.318,299.323a70.231,70.231,0,0,1-1.761,14.391,2.044,2.044,0,0,0,1.4,2.46,2.021,2.021,0,0,0,2.46-1.4,75.657,75.657,0,0,0,1.9-15.454,2,2,0,0,0-4,0Z"/><path class="b" d="M159.126,301.14a19.909,19.909,0,0,1-.125,2.525c-.012.11-.025.22-.038.33,0,.045-.052.407-.018.151s-.016.11-.023.155c-.017.113-.034.226-.052.339q-.114.729-.259,1.453a37.065,37.065,0,0,1-1.4,5.179,2.013,2.013,0,0,0,1.4,2.46,2.051,2.051,0,0,0,2.46-1.4,37.313,37.313,0,0,0,1.43-5.35,28.038,28.038,0,0,0,.624-5.845,2,2,0,0,0-4,0Z"/><path class="a" d="M166.612,225.412c-.46,21.152-.682,28.9-2.183,53.7-2.389.043-14.873.055-19.089-.3q-.7-8.1-1.156-16.207c-16.742-.022-35.414.063-52.7.069.046,5.249.093,10.565.138,15.916-3.863.029-9.766.036-12.135-.074.028-5.014-1.526-70.726-.352-77.969a69.671,69.671,0,0,1,1.548-6.891,25.786,25.786,0,0,1,12.731-15.665c2.28-1.277,5.936-2.8,9.135-4.157l1.07,1.3c.958,1.382,3.606,2.02,5.269,2.265,5.59.826,12.068-.627,17.609-2.742a108.772,108.772,0,0,0,10.171-4.7l12.888,7.2a37.831,37.831,0,0,1,6.86,4.517c6.212,5.533,8.075,14.39,9.02,22.656a205.616,205.616,0,0,1,1.179,21.089"/><path class="b" d="M111.64,292.183q.939,19.211,1.915,38.419,1.059,21.092,2.094,42.186.537,11.049,1.05,22.1c.118,2.563,4.119,2.578,4,0q-.928-20.118-1.942-40.231-1.034-20.842-2.086-41.686-.521-10.394-1.031-20.787c-.125-2.563-4.126-2.578-4,0Z"/><path class="b" d="M89.484,263.043q.227,25.673.374,51.347c.071,17.04.046,34.075-.227,51.112-.16,9.956-.223,19.921.461,29.86a2.058,2.058,0,0,0,1.468,1.928c8.952,2.215,18.725,1.356,27.671-.474,2.52-.516,1.453-4.372-1.064-3.857-8.228,1.683-17.309,2.511-25.543.474l1.468,1.929c-1.2-17.437-.263-34.963-.209-52.421.052-17-.032-34-.158-51q-.106-14.448-.241-28.9c-.022-2.573-4.023-2.579-4,0Z"/><path class="b" d="M81.961,279.218a82.7,82.7,0,0,1-1.218,8.211,39.415,39.415,0,0,0-1.241,8.2c.059,4.939.815,10.049,3.557,14.249,1.4,2.147,4.867.144,3.454-2.019-2.49-3.813-3.177-8.682-3-13.177a52.134,52.134,0,0,1,1.316-7.364c.5-2.68.868-5.385,1.133-8.1a2.013,2.013,0,0,0-2-2,2.044,2.044,0,0,0-2,2Z"/><path class="c" d="M135.422,106.97a15.166,15.166,0,0,1-2.875-11.625c.684-2.266,3.21-3.47,5.563-3.733,4.112-.461,7.574-.089,11.082,4.4,2.036,2.606,2.665,5.877,4.131,8.842s3.333,4.444,6.111,6.166c-.945,2.834-1.889,5-4.889,6.223a18.3,18.3,0,0,1-5.278.694,15.181,15.181,0,0,1-5.595-1.887C141.284,114.748,137.458,109.53,135.422,106.97Z"/><path class="c" d="M149.354,119.066a28.977,28.977,0,0,1,.53,6.785c-.129,3.083-.784,8.617-3.006,12.839l-1.679,1.919a8.567,8.567,0,0,0-.8-4.9A3.629,3.629,0,0,0,141.17,134a4.017,4.017,0,0,0-2.806.975,30.711,30.711,0,0,0-3.291.077,16.914,16.914,0,0,1-3.8-.141c-4.359-1.33-9.618-8.3-11.3-11.455a59.156,59.156,0,0,1-3.457-10.366,35.263,35.263,0,0,1-18.563,12.9c-1.869.556-4.942,1.539-11.356,3.557a47.944,47.944,0,0,1,.577-12.726,30.653,30.653,0,0,1,6.509-13.538c5.521-6.2,13.624-9.854,23.6-10.113A29.152,29.152,0,0,1,136.513,99.3a42.249,42.249,0,0,1,4.837,4.184c4.172,3.871,6.18,8.354,7.611,13.86Q149.183,118.2,149.354,119.066Z"/><path class="b" d="M104.871,170.66c-5.6,2.512-11.562,4.457-16.463,8.266a27.986,27.986,0,0,0-9.968,15.359,45.552,45.552,0,0,0-1.559,9.478c-.119,2.727-.148,5.459-.169,8.188-.132,16.79.219,33.587.513,50.374.094,5.392.284,10.794.259,16.188a2.038,2.038,0,0,0,2,2c3.95.172,7.915.1,11.866.052,2.572-.032,2.58-4.032,0-4-3.951.05-7.916.12-11.866-.052l2,2c.058-12.574-.432-25.166-.6-37.74-.113-8.4-.207-16.8-.19-25.2.007-3.135.025-6.27.106-9.4.028-1.083.063-2.167.122-3.249.022-.407.047-.814.081-1.219.013-.167.031-.333.045-.5.043-.5.035-.222,0-.014a48.614,48.614,0,0,1,2.5-9.747,23.3,23.3,0,0,1,5.674-7.988c4.954-4.6,11.623-6.629,17.673-9.341a2.014,2.014,0,0,0,.717-2.737,2.048,2.048,0,0,0-2.736-.717Z"/><path class="b" d="M135.41,171.536q6.567,3.671,13.133,7.341c3.683,2.061,7.206,4.21,9.586,7.8,4.461,6.725,5.222,15.385,5.843,23.218.409,5.164.556,10.342.64,15.519.042,2.572,4.042,2.58,4,0-.149-9.251-.405-18.663-2.166-27.774a37.494,37.494,0,0,0-4.168-11.864,25.551,25.551,0,0,0-9.453-9.064c-5.067-2.982-10.264-5.759-15.4-8.627-2.249-1.258-4.269,2.2-2.019,3.453Z"/><path class="b" d="M88.008,196.969a39.45,39.45,0,0,0-.87,6.765c-.2,2.794-.316,5.595-.4,8.395-.142,4.643-.106,9.241.06,13.884.3,8.444.478,16.895.672,25.342.087,3.771.207,7.544.211,11.316,0,2.574,4,2.578,4,0-.008-8.036-.317-16.08-.526-24.112-.208-7.97-.677-15.965-.485-23.935.074-3.068.175-6.137.359-9.2a39.824,39.824,0,0,1,.838-7.39c.632-2.5-3.224-3.562-3.857-1.064Z"/><path class="b" d="M164.612,225.412c-.286,13.17-.653,26.329-1.362,39.484q-.384,7.11-.821,14.217l2-2c-6.332.108-12.774.213-19.089-.3l2,2c-.553-18.746-.8-37.5-1.133-56.248q-.138-7.734-.31-15.469c-.059-2.57-4.059-2.579-4,0,.422,18.487.623,36.978,1.028,55.465q.178,8.127.415,16.252a2.054,2.054,0,0,0,2,2c6.315.517,12.757.412,19.089.3a2.047,2.047,0,0,0,2-2c.833-13.781,1.544-27.561,1.9-41.363q.157-6.168.285-12.338c.056-2.575-3.944-2.574-4,0Z"/><path class="b" d="M89.679,264.671q21.054,0,42.11-.064,5.678-.008,11.355-.009c2.574,0,2.578-4,0-4q-21.043,0-42.087.064-5.688.007-11.378.009c-2.574,0-2.578,4,0,4Z"/><path class="b" d="M149.258,182.88a16.5,16.5,0,0,0-4.543,4.226,13.185,13.185,0,0,0-2.1,3.571c-.3.733-.484,1.5-.733,2.243a2.015,2.015,0,0,0,1.4,2.46,2.047,2.047,0,0,0,2.46-1.4c.228-.686.4-1.387.662-2.064.025-.065.159-.422.046-.122s.033-.069.062-.133c.111-.238.23-.473.359-.7.138-.245.285-.484.444-.716.029-.043.288-.406.128-.189s.173-.209.212-.255a27.829,27.829,0,0,1,2.157-2.346c.146-.139.294-.275.446-.408.133-.117.751-.548.183-.17.279-.185.541-.385.838-.544a2.019,2.019,0,0,0,.717-2.737,2.042,2.042,0,0,0-2.736-.717Z"/><path class="b" d="M102.2,176.542c1.68,2.148,4.964,2.686,7.507,2.956a32.35,32.35,0,0,0,10.29-.793c6.423-1.413,12.181-4.369,18.05-7.213,2.316-1.122.29-4.572-2.019-3.453-5.16,2.5-10.182,5.087-15.781,6.5a31.963,31.963,0,0,1-8.859,1.077c-1.962-.065-5.04-.214-6.359-1.9a2.011,2.011,0,0,0-2.829,0,2.051,2.051,0,0,0,0,2.828Z"/><path class="b" d="M129.9,157.343q.024,2.808.065,5.617a11.124,11.124,0,0,0,.68,4.63,6.522,6.522,0,0,0,2.971,3.1l2.352,1.174a2,2,0,0,0,2.019-3.454l-2.1-1.049a9.753,9.753,0,0,0-.875-.437q-.138-.071.2.134c-.087-.08-.173-.162-.256-.247s-.4-.432-.344-.362-.226-.337-.276-.422-.257-.558-.091-.128a5.512,5.512,0,0,1-.239-.883c.106.518.018.088.01-.048-.009-.152-.012-.3-.016-.455-.015-.637-.024-1.274-.034-1.911q-.039-2.63-.059-5.259a2,2,0,0,0-4,0Z"/><path class="b" d="M104.4,175.769q1.137-.621,2.251-1.282a6.507,6.507,0,0,0,1.257-.861,3.081,3.081,0,0,0,.86-2.111c.071-1.419-.012-2.862-.019-4.283a2,2,0,0,0-4,0l.012,2.173c0,.737.053,1.49,0,2.225l.071-.532a1.207,1.207,0,0,1-.042.222,1.237,1.237,0,0,1,.291-.523c.273-.2.325-.242.154-.127-.067.042-.135.083-.2.123-.284.173-.569.342-.856.51q-.89.519-1.794,1.012a2.018,2.018,0,0,0-.717,2.736,2.041,2.041,0,0,0,2.736.718Z"/><path class="b" d="M139.778,136.388a2.188,2.188,0,0,1,2.014-.294c.129.035.255.077.379.124q-.289-.118.011.029c.166.119.364.284.112.05.132.122.249.261.38.383-.372-.346-.125-.2-.048-.044.033.065.328.617.181.282a4.578,4.578,0,0,1,.193.572,4.5,4.5,0,0,1,.219,1.173,11.457,11.457,0,0,1,.01,1.583,5.384,5.384,0,0,1-.193,1.3,10.494,10.494,0,0,1-.392,1.248c-.073.2-.146.39-.227.582.149-.353-.122.248-.156.318a7.671,7.671,0,0,1-1.665,2.338,4.454,4.454,0,0,1-1.694,1.023c-.238.081-.479.152-.724.21a3.265,3.265,0,0,1-.452.09,4.662,4.662,0,0,1-.775.013c.234.017-.435-.107-.534-.139a2,2,0,1,0-1.064,3.857,8.379,8.379,0,0,0,6.531-1.021,10.867,10.867,0,0,0,4.217-5.214,13.249,13.249,0,0,0,1.126-6.078c-.13-1.956-.646-4.092-2.22-5.4a6.323,6.323,0,0,0-8.057.185,2.017,2.017,0,0,0,0,2.829,2.043,2.043,0,0,0,2.828,0Z"/><path class="b" d="M99.849,155.346c-.671-.491-.209-.147.012.033a6.494,6.494,0,0,0,1.016.718,7.785,7.785,0,0,0,3.338.844,9.167,9.167,0,0,0,6.095-1.908,2,2,0,0,0,.586-1.414,2.037,2.037,0,0,0-.586-1.415,2.013,2.013,0,0,0-1.414-.585,2.342,2.342,0,0,0-1.414.585c.713-.556-.024-.008-.249.117-.149.084-.3.157-.455.232-.287.14.4-.148.17-.069-.1.034-.192.075-.289.109q-.318.113-.644.2c-.127.032-.6.055-.667.137.317-.039.363-.046.139-.019l-.136.013c-.14.012-.28.021-.421.026-.283.01-.567.006-.849-.012a1.663,1.663,0,0,0-.38-.034l.3.04c-.074-.011-.149-.024-.223-.037a5.447,5.447,0,0,1-.547-.133c-.087-.026-.173-.058-.26-.086-.337-.1.173.1.2.093-.09.011-.319-.157-.4-.2-.109-.063-.213-.134-.317-.205-.143-.1-.3-.288.233.182-.036-.032-.076-.061-.112-.092-.23-.2-.463-.387-.71-.567a2.014,2.014,0,0,0-1.541-.2,2,2,0,0,0-.478,3.656Z"/><path class="b" d="M116.434,136.674c.489,1.31.4,4.394-2.109,4.8-3.341.177-3.738-3.523-2.716-5.333C112.445,134.663,115.117,133.909,116.434,136.674Z"/><path class="b" d="M97.763,136.836c.393,1.36.236,4.5-1.968,4.8-2.923.023-3.172-3.77-2.232-5.569C94.332,134.6,96.685,133.953,97.763,136.836Z"/><path class="b" d="M101.217,142.473a29.229,29.229,0,0,0-1.267,2.686l.2-.477a3.761,3.761,0,0,0-.436,1.588,2.4,2.4,0,0,0,.864,1.871,3.24,3.24,0,0,0,1.409.747c.333.062.658.073.99.1a2,2,0,0,0,1.415-.586,2,2,0,0,0,0-2.828l-.405-.313a1.991,1.991,0,0,0-1.01-.273c-.139-.013-.28-.01-.419-.028l.532.072a1.3,1.3,0,0,1-.289-.079l.478.2A1.6,1.6,0,0,1,103,145l.405.312a1.727,1.727,0,0,1-.182-.159l.313.4a.519.519,0,0,1-.068-.116l.2.477a.427.427,0,0,1-.022-.087l.071.532a.853.853,0,0,1,0-.189l-.072.532a1.719,1.719,0,0,1,.117-.392l-.2.478c.1-.224.19-.448.284-.673l-.2.478c.3-.717.659-1.417,1.023-2.106a2.1,2.1,0,0,0,.2-1.541,2.044,2.044,0,0,0-.919-1.195,2,2,0,0,0-2.737.718Z"/><path class="b" d="M130.281,161.45a35.035,35.035,0,0,0,5.709-5.683,32.555,32.555,0,0,0,3.372-4.892,2,2,0,0,0-3.454-2.019,26.557,26.557,0,0,1-1.523,2.429c-.128.188-.257.376-.391.56-.193.265-.392.527-.59.788.167-.221.077-.1-.039.048q-.151.194-.306.386a34.935,34.935,0,0,1-5.606,5.554,2,2,0,0,0,0,2.829,2.06,2.06,0,0,0,2.828,0Z"/><path class="b" d="M121.411,162.354c-6.554,2.71-14.117,4.076-20.706.689a18.612,18.612,0,0,1-7.5-6.617,24.469,24.469,0,0,1-3.093-9.64C89.5,142,89.451,137.128,89,132.32a2.055,2.055,0,0,0-2-2,2.015,2.015,0,0,0-2,2c.791,8.45.114,17.84,4.388,25.5C93.205,164.648,101,168.8,108.7,169.047a33.354,33.354,0,0,0,13.778-2.835,2.067,2.067,0,0,0,1.4-2.461,2.013,2.013,0,0,0-2.46-1.4Z"/><path class="b" d="M114.671,113.935c1.258,4.754,2.588,9.478,5.48,13.517,2.656,3.711,6.095,7.925,10.593,9.387,2.454.8,3.5-3.064,1.063-3.857a12.564,12.564,0,0,1-4.408-3.1A34.437,34.437,0,0,1,123.3,125c-2.531-3.642-3.645-7.881-4.769-12.127-.658-2.486-4.517-1.431-3.857,1.064Z"/><path class="b" d="M115.081,111.706A34.969,34.969,0,0,1,101.1,122.792c-2.02.844-4.146,1.405-6.232,2.057-2.732.853-5.46,1.72-8.19,2.579-2.447.771-1.4,4.633,1.063,3.857,5.053-1.591,10.377-2.9,15.254-4.985a37.952,37.952,0,0,0,14.913-11.765,2.067,2.067,0,0,0,0-2.829,2.014,2.014,0,0,0-2.829,0Z"/><path class="b" d="M94.336,120.273c.849,2.487,1.739,4.957,2.725,7.393a2.133,2.133,0,0,0,.919,1.195,1.976,1.976,0,0,0,1.541.2c.789-.283,1.554-.63,2.341-.919a2.025,2.025,0,0,0,1.4-2.46c-.942-2.492-1.874-4.987-2.84-7.47a2.043,2.043,0,0,0-2.938-1.195c-.736.344-1.482.668-2.225,1a2.006,2.006,0,0,0-.717,2.736,2.06,2.06,0,0,0,2.736.718c.743-.328,1.489-.652,2.225-1l-2.938-1.2c.965,2.483,1.9,4.978,2.84,7.47l1.4-2.46c-.787.289-1.551.636-2.34.919l2.46,1.4c-.986-2.436-1.876-4.906-2.725-7.393a2,2,0,0,0-3.857,1.063Z"/><path class="b" d="M134.475,95.876c.827-2.377,4.478-2.482,6.53-2.405a8.738,8.738,0,0,1,6.708,3.882c2.023,2.745,2.589,6.251,4.242,9.2a17.77,17.77,0,0,0,6.469,6.2l-.919-2.258c-.572,1.7-1.214,3.486-2.827,4.457a10.326,10.326,0,0,1-5.411.991c-2.575-.057-2.574,3.943,0,4s5.53-.262,7.718-1.719c2.382-1.586,3.493-4.04,4.377-6.666a2.029,2.029,0,0,0-.919-2.259,16.838,16.838,0,0,1-3.833-3.023,14.765,14.765,0,0,1-2.483-4.6c-1.416-3.689-2.886-7.153-6.082-9.67-4.784-3.768-15.075-3.954-17.427,2.806-.847,2.436,3.015,3.483,3.857,1.063Z"/><path class="b" d="M89.046,133.033c-1.326-7.585-.908-15.981,2.555-22.962A26.2,26.2,0,0,1,107.11,96.882c6.932-2.276,14.994-2.547,21.8.293A34,34,0,0,1,139.055,104a25.671,25.671,0,0,1,6.295,8.7c3.225,7.72,3.7,17.376-.2,24.988-1.17,2.287,2.28,4.313,3.454,2.018,3.977-7.771,4.154-17.369,1.514-25.558a28.647,28.647,0,0,0-5.824-10.52,42.454,42.454,0,0,0-10.338-8.393c-14.219-8.1-35.324-4.009-44.278,10.1-5.383,8.479-6.187,19.068-4.49,28.771a2.018,2.018,0,0,0,2.461,1.4,2.045,2.045,0,0,0,1.4-2.46Z"/></svg>