<svg width="800" height="480" viewBox="0 0 800 480" fill="none" xmlns="http://www.w3.org/2000/svg">
<path fill-rule="evenodd" clip-rule="evenodd" d="M720 188.262V113.047H640V188.262H560V263.496H640V338.711H720V263.496H800V188.262H720ZM496 188.262C498.16 188.262 500 221.058 500 236.816C500 373.863 402.321 480 255.081 480C114.081 480 0 372.629 0 240.059C0 107.45 114.081 0 255.081 0C323.961 0 381.56 23.2486 426 62.3242L356.76 124.258C337.84 107.108 304.641 85.7031 255.081 85.7031C168.001 85.7031 96.9202 150.439 96.9202 234.043C96.9202 317.647 168.001 379.316 255.081 379.316C356.041 379.316 393.96 301.104 399.76 263.496H240V188.262H496Z" fill="black"/>
</svg>
