<svg width="734" height="734" viewBox="0 0 734 734" fill="none" xmlns="http://www.w3.org/2000/svg">
<path fill-rule="evenodd" clip-rule="evenodd" d="M366.667 566.667C477.123 566.667 566.667 477.123 566.667 366.667C566.667 256.21 477.123 166.667 366.667 166.667C256.21 166.667 166.667 256.21 166.667 366.667C166.667 477.123 256.21 566.667 366.667 566.667ZM366.667 500C440.303 500 500 440.303 500 366.667C500 293.029 440.303 233.333 366.667 233.333C293.029 233.333 233.333 293.029 233.333 366.667C233.333 440.303 293.029 500 366.667 500Z" fill="#0F0F0F"/>
<path d="M566.667 133.333C548.257 133.333 533.333 148.257 533.333 166.667C533.333 185.076 548.257 200 566.667 200C585.077 200 600 185.076 600 166.667C600 148.257 585.077 133.333 566.667 133.333Z" fill="#0F0F0F"/>
<path fill-rule="evenodd" clip-rule="evenodd" d="M21.7987 109.202C0 151.984 0 207.99 0 320V413.333C0 525.343 0 581.35 21.7987 624.13C40.9733 661.763 71.5693 692.36 109.202 711.533C151.984 733.333 207.99 733.333 320 733.333H413.333C525.343 733.333 581.35 733.333 624.13 711.533C661.763 692.36 692.36 661.763 711.533 624.13C733.333 581.35 733.333 525.343 733.333 413.333V320C733.333 207.99 733.333 151.984 711.533 109.202C692.36 71.5693 661.763 40.9733 624.13 21.7987C581.35 0 525.343 0 413.333 0H320C207.99 0 151.984 0 109.202 21.7987C71.5693 40.9733 40.9733 71.5693 21.7987 109.202ZM413.333 66.6667H320C262.895 66.6667 224.075 66.7187 194.069 69.17C164.841 71.558 149.895 75.8863 139.468 81.199C114.38 93.9823 93.9823 114.38 81.199 139.468C75.8863 149.895 71.558 164.841 69.17 194.069C66.7187 224.075 66.6667 262.895 66.6667 320V413.333C66.6667 470.44 66.7187 509.257 69.17 539.263C71.558 568.493 75.8863 583.44 81.199 593.867C93.9823 618.953 114.38 639.35 139.468 652.133C149.895 657.447 164.841 661.777 194.069 664.163C224.075 666.613 262.895 666.667 320 666.667H413.333C470.44 666.667 509.257 666.613 539.263 664.163C568.493 661.777 583.44 657.447 593.867 652.133C618.953 639.35 639.35 618.953 652.133 593.867C657.447 583.44 661.777 568.493 664.163 539.263C666.613 509.257 666.667 470.44 666.667 413.333V320C666.667 262.895 666.613 224.075 664.163 194.069C661.777 164.841 657.447 149.895 652.133 139.468C639.35 114.38 618.953 93.9823 593.867 81.199C583.44 75.8863 568.493 71.558 539.263 69.17C509.257 66.7187 470.44 66.6667 413.333 66.6667Z" fill="#0F0F0F"/>
</svg>
