<svg width="435" height="416" viewBox="0 0 435 416" fill="none" xmlns="http://www.w3.org/2000/svg">
<path d="M330.07 140.885C356.398 140.885 377.742 119.542 377.742 93.2132C377.742 66.8848 356.398 45.5414 330.07 45.5414C303.742 45.5414 282.398 66.8848 282.398 93.2132C282.398 119.542 303.742 140.885 330.07 140.885Z" fill="white"/>
<path d="M383.928 316.455L371.447 149.037H294.265V180.855L256.18 240.23L282.48 257.081L294.265 238.687V316.455H303.592L270.6 399.454L309.997 415.117L336.611 348.164L362.857 415.117L402.309 399.646L369.699 316.455H383.928Z" fill="white"/>
<path d="M386.208 252.124H435L426.492 153.571H377.687L386.208 252.124Z" fill="white"/>
<path d="M109.313 106.732C138.787 106.732 162.679 82.8395 162.679 53.3662C162.679 23.8929 138.787 0 109.313 0C79.8399 0 55.947 23.8929 55.947 53.3662C55.947 82.8395 79.8399 106.732 109.313 106.732Z" fill="white"/>
<path d="M155.606 184.979L155.742 185.416L156.084 185.238L156.357 185.416L156.493 185.088L249.092 159.935L237.403 123.556L157.695 143.056L94.7837 108.972L94.7564 109.04L9.90033 104.643L2.29415 250.881H1.47481V266.585L0 295.071L1.47481 295.153H1.52943L83.6817 299.413L42.9469 345.637L42.1549 344.682L26.9016 357.108L74.1364 415.117L89.3897 402.691L78.5472 389.349L161.614 295.153H162.68V250.881H87.5462L92.749 150.744L155.606 184.979ZM87.4506 295.153L85.1019 297.815L85.2384 295.153H87.4506Z" fill="white"/>
</svg>
