<svg width="448" height="448" viewBox="0 0 448 448" fill="none" xmlns="http://www.w3.org/2000/svg">
<path d="M90.7279 208.5H48.7279C42.9412 208.5 38.2297 213.211 38.2297 218.998V246.998C38.2297 252.784 42.9412 257.496 48.7279 257.496H90.7279C96.5145 257.496 101.226 252.784 101.226 246.998V218.998C101.226 213.211 96.5145 208.5 90.7279 208.5ZM66.2223 250.499H48.7279C47.7997 250.498 46.9102 250.128 46.2539 249.472C45.5976 248.815 45.228 247.926 45.226 246.998V218.998C45.228 218.069 45.5976 217.18 46.2539 216.524C46.9102 215.867 47.7997 215.498 48.7279 215.496H66.2297L66.2223 250.499ZM94.2223 247.005C94.2203 247.933 93.8507 248.823 93.1944 249.479C92.5381 250.135 91.6486 250.505 90.7204 250.507H73.2185V215.503H90.7204C91.6486 215.505 92.5381 215.875 93.1944 216.531C93.8507 217.187 94.2203 218.077 94.2223 219.005V247.005Z" fill="white"/>
<path d="M90.7279 282.001H48.7279C42.9412 282.001 38.2297 286.713 38.2297 292.499V320.499C38.2297 326.286 42.9412 330.997 48.7279 330.997H90.7279C96.5145 330.997 101.226 326.286 101.226 320.499V292.499C101.226 286.713 96.5145 282.001 90.7279 282.001ZM66.2223 324.001H48.7279C47.7997 323.999 46.9102 323.63 46.2539 322.973C45.5976 322.317 45.228 321.427 45.226 320.499V292.499C45.228 291.571 45.5976 290.682 46.2539 290.025C46.9102 289.369 47.7997 288.999 48.7279 288.997H66.2297L66.2223 324.001ZM94.2223 320.499C94.2203 321.427 93.8507 322.317 93.1944 322.973C92.5381 323.63 91.6486 323.999 90.7204 324.001H73.2185V288.997H90.7204C91.6486 288.999 92.5381 289.369 93.1944 290.025C93.8507 290.682 94.2203 291.571 94.2223 292.499V320.499Z" fill="white"/>
<path d="M90.7279 352.001H48.7279C42.9412 352.001 38.2297 356.713 38.2297 362.499V390.499C38.2297 396.286 42.9412 400.997 48.7279 400.997H90.7279C96.5145 400.997 101.226 396.286 101.226 390.499V362.499C101.226 356.713 96.5145 352.001 90.7279 352.001ZM66.2223 394.001H48.7279C47.7997 393.999 46.9102 393.63 46.2539 392.973C45.5976 392.317 45.228 391.427 45.226 390.499V362.499C45.228 361.571 45.5976 360.682 46.2539 360.025C46.9102 359.369 47.7997 358.999 48.7279 358.997H66.2297L66.2223 394.001ZM94.2223 390.499C94.2203 391.427 93.8507 392.317 93.1944 392.973C92.5381 393.63 91.6486 393.999 90.7204 394.001H73.2185V358.997H90.7204C91.6486 358.999 92.5381 359.369 93.1944 360.025C93.8507 360.682 94.2203 361.571 94.2223 362.499V390.499Z" fill="white"/>
<path d="M346.221 219.005V247.005C346.221 252.791 350.933 257.503 356.72 257.503H398.72C404.506 257.503 409.218 252.791 409.218 247.005V219.005C409.218 213.218 404.506 208.507 398.72 208.507H356.72C353.936 208.509 351.267 209.615 349.298 211.584C347.33 213.552 346.223 216.221 346.221 219.005ZM381.225 215.503H398.727C399.655 215.505 400.545 215.874 401.201 216.531C401.857 217.187 402.227 218.077 402.229 219.005V247.005C402.227 247.933 401.857 248.822 401.201 249.479C400.545 250.135 399.655 250.505 398.727 250.507H381.225V215.503ZM374.221 250.499H356.72C355.791 250.497 354.902 250.128 354.246 249.471C353.589 248.815 353.22 247.925 353.218 246.997V218.997C353.22 218.069 353.589 217.18 354.246 216.523C354.902 215.867 355.791 215.497 356.72 215.495H374.221V250.499Z" fill="white"/>
<path d="M398.728 282.001H356.728C350.941 282.001 346.23 286.713 346.23 292.499V320.499C346.23 326.286 350.941 330.997 356.728 330.997H398.728C404.515 330.997 409.226 326.286 409.226 320.499V292.499C409.226 286.713 404.515 282.001 398.728 282.001ZM374.222 324.001H356.72C355.792 323.999 354.903 323.63 354.246 322.973C353.59 322.317 353.22 321.427 353.219 320.499V292.499C353.22 291.571 353.59 290.682 354.246 290.025C354.903 289.369 355.792 288.999 356.72 288.997H374.222V324.001ZM402.222 320.499C402.22 321.427 401.851 322.317 401.194 322.973C400.538 323.63 399.649 323.999 398.72 324.001H381.219V288.997H398.72C399.649 288.999 400.538 289.369 401.194 290.025C401.851 290.682 402.22 291.571 402.222 292.499V320.499Z" fill="white"/>
<path d="M398.728 352.001H356.728C350.941 352.001 346.23 356.713 346.23 362.499V390.499C346.23 396.286 350.941 400.997 356.728 400.997H398.728C404.515 400.997 409.226 396.286 409.226 390.499V362.499C409.226 356.713 404.515 352.001 398.728 352.001ZM374.222 394.001H356.72C355.792 393.999 354.903 393.63 354.246 392.973C353.59 392.317 353.22 391.427 353.219 390.499V362.499C353.22 361.571 353.59 360.682 354.246 360.025C354.903 359.369 355.792 358.999 356.72 358.997H374.222V394.001ZM402.222 390.499C402.22 391.427 401.851 392.317 401.194 392.973C400.538 393.63 399.649 393.999 398.72 394.001H381.219V358.997H398.72C399.649 358.999 400.538 359.369 401.194 360.025C401.851 360.682 402.22 361.571 402.222 362.499V390.499Z" fill="white"/>
<path d="M152.783 258.466C148.848 257.137 147.108 256.375 147.108 254.643C147.108 253.239 148.557 252.03 151.566 252.03C154.545 252.03 156.725 252.791 157.942 253.314L159.488 248.364C157.001 247.412 154.355 246.948 151.693 246.997C144.473 246.997 140.127 250.544 140.127 255.166C140.127 259.101 143.435 261.602 148.519 263.17C152.186 264.327 153.642 265.306 153.642 266.993C153.642 268.763 151.962 269.927 148.788 269.927C145.846 269.927 142.994 269.091 141.135 268.24L139.731 273.31C141.449 274.154 144.898 274.96 148.393 274.96C156.778 274.96 160.72 271.1 160.72 266.552C160.72 262.73 158.181 260.236 152.783 258.466Z" fill="white"/>
<path d="M180.984 252.075C183.426 252.075 185.382 252.545 186.778 253.075L188.182 248.215C186.965 247.647 184.247 247.005 180.663 247.005C171.412 247.005 163.968 252.15 163.968 261.408C163.968 269.136 169.411 274.96 179.984 274.96C183.702 274.96 186.562 274.363 187.831 273.795L186.778 269.009C184.915 269.594 182.974 269.894 181.022 269.898C174.862 269.898 171.233 266.471 171.233 261.042C171.24 255.009 175.504 252.075 180.984 252.075Z" fill="white"/>
<path d="M210.687 257.869H199.3V247.445H192.371V274.557H199.3V263.207H210.687V274.557H217.578V247.445H210.687V257.869Z" fill="white"/>
<path d="M237.074 247.005C228.055 247.005 222.208 253.075 222.208 261.199C222.208 268.927 227.51 275.005 236.574 275.005C245.512 275.005 251.582 269.607 251.582 260.729C251.575 253.232 246.46 247.005 237.074 247.005ZM236.947 270.137C232.318 270.137 229.511 266.388 229.511 261.08C229.511 255.808 232.229 251.866 236.895 251.866C241.659 251.866 244.287 256.055 244.287 260.923C244.287 266.194 241.607 270.137 236.947 270.137Z" fill="white"/>
<path d="M269.599 247.005C260.572 247.005 254.725 253.075 254.725 261.199C254.725 268.927 260.027 275.005 269.091 275.005C278.036 275.005 284.107 269.607 284.107 260.729C284.099 253.232 278.97 247.005 269.599 247.005ZM269.457 270.137C264.828 270.137 262.02 266.388 262.02 261.08C262.02 255.808 264.738 251.866 269.405 251.866C274.176 251.866 276.797 256.055 276.797 260.923C276.797 266.194 274.124 270.137 269.457 270.137Z" fill="white"/>
<path d="M295.568 247.445H288.632V274.557H307.724V269.405H295.568V247.445Z" fill="white"/>
<path d="M272.727 184.001C272.727 177.566 271.46 171.193 268.997 165.248C266.534 159.303 262.925 153.9 258.374 149.35C253.824 144.8 248.422 141.19 242.476 138.727C236.531 136.265 230.159 134.997 223.723 134.997C217.288 134.997 210.916 136.265 204.971 138.727C199.025 141.19 193.623 144.8 189.073 149.35C184.522 153.9 180.913 159.303 178.45 165.248C175.987 171.193 174.72 177.566 174.72 184.001C174.72 190.436 175.987 196.808 178.45 202.754C180.913 208.699 184.522 214.101 189.073 218.652C193.623 223.202 199.025 226.812 204.971 229.274C210.916 231.737 217.288 233.005 223.723 233.005C230.159 233.005 236.531 231.737 242.476 229.274C248.422 226.812 253.824 223.202 258.374 218.652C262.925 214.101 266.534 208.699 268.997 202.754C271.46 196.808 272.727 190.436 272.727 184.001ZM188.727 184.001C188.728 179.403 189.635 174.851 191.395 170.603C193.155 166.356 195.735 162.497 198.987 159.246C202.239 155.996 206.099 153.418 210.347 151.659C214.595 149.901 219.148 148.996 223.746 148.997C228.344 148.998 232.896 149.905 237.143 151.665C241.391 153.426 245.25 156.005 248.5 159.257C251.751 162.509 254.329 166.369 256.087 170.617C257.846 174.865 258.751 179.418 258.75 184.016C258.748 193.301 255.057 202.206 248.49 208.77C241.923 215.335 233.016 219.022 223.731 219.02C214.445 219.018 205.541 215.327 198.976 208.76C192.412 202.192 188.725 193.286 188.727 184.001Z" fill="white"/>
<path d="M230.728 191.005V163.005C230.728 159.152 227.577 156.001 223.724 156.001C219.871 156.001 216.72 159.152 216.72 163.005V184.009H209.717C205.864 184.009 202.713 187.159 202.713 191.012C202.713 194.865 205.864 198.016 209.717 198.016H223.724C225.58 198.006 227.357 197.264 228.668 195.951C229.98 194.638 230.72 192.861 230.728 191.005Z" fill="white"/>
<path d="M203.16 376.5H213.225V381.584H203.16V376.5Z" fill="white"/>
<path d="M234.221 376.5H244.287V381.584H234.221V376.5Z" fill="white"/>
<path d="M441.004 420H434V196H438.734C446.611 196 450.158 190.363 446.641 183.478L423.666 138.522C420.142 131.637 410.816 126 402.946 126H284.532L230.996 82.6635V65.5648C258.996 87.9051 286.996 17.4347 314.996 39.7824C286.996 0.253866 258.996 53.5285 230.996 14V7.00373C231.004 3.15093 227.853 0 224 0C220.147 0 216.996 3.15093 216.996 7.00373V82.6709L163.46 126.007H45.0613C37.184 126.007 27.8581 131.645 24.3413 138.529L1.3664 183.486C-2.15787 190.37 1.39627 196.007 9.2736 196.007H14.0075V420.007H7.00373C5.14873 420.011 3.37072 420.75 2.05833 422.061C0.745943 423.372 0.00591606 425.149 0 427.004V441.004C0.00591606 442.859 0.745943 444.636 2.05833 445.947C3.37072 447.258 5.14873 447.996 7.00373 448H441.004C442.857 447.994 444.634 447.255 445.944 445.944C447.255 444.634 447.994 442.857 448 441.004V427.004C447.996 425.149 447.258 423.371 445.947 422.058C444.636 420.746 442.859 420.006 441.004 420ZM112 420H28V196H94.7296C94.864 197.217 95.1029 198.374 95.4763 199.427C97.3056 204.542 102.622 210 112.007 210L112 420ZM298.667 439.369H149.333V428.169H298.667V439.369ZM182 420V336H220.498V420H182ZM227.502 420V336H266V420H227.502ZM322 420H280V336H294V321.955C294 321.955 245.892 292.887 230.63 282.023C228.673 280.702 226.365 279.996 224.004 279.996C221.642 279.996 219.334 280.702 217.377 282.023C202.115 292.887 154.007 321.955 154.007 321.955V336H168V420H126V196H112C108.147 196 107.438 193.991 110.402 191.55L218.594 102.443C220.08 101.226 222.044 100.613 224 100.613C225.956 100.613 227.913 101.226 229.406 102.443L337.598 191.55C340.562 193.991 339.853 196 336 196H322V420ZM420 420H336V210C345.386 210 350.702 204.542 352.531 199.427C352.905 198.374 353.143 197.217 353.278 196H420.007L420 420Z" fill="white"/>
</svg>
