<svg width="354" height="483" viewBox="0 0 354 483" fill="none" xmlns="http://www.w3.org/2000/svg">
<path d="M280.714 356.841C255.754 347.671 234.197 339.754 231.854 317.195C230.77 306.795 231.652 294.571 234.403 281.812C243.029 272.569 250.176 259.232 257.5 238.709C272.083 233.092 281.377 220.604 285.904 200.558C288.226 190.29 284.906 179.735 276.796 171.496C277.525 159.038 276.885 158.357 276.417 157.859L275.905 157.353H78.3205V171.422C68.9841 180.021 65.4814 189.821 67.9077 200.558C72.4302 220.597 81.7261 233.085 96.3217 238.709C103.644 259.231 110.785 272.562 119.4 281.797C121.343 290.776 123.323 304.07 121.957 317.195C119.613 339.754 98.0556 347.671 73.0953 356.841C38.8324 369.423 0 383.691 0 440.461C0 458.127 54.8837 483 176.904 483C298.925 483 353.809 458.127 353.809 440.461C353.809 383.692 314.976 369.424 280.714 356.841ZM156.064 457.131L126.926 338.779L162.274 353.494L160.102 372.983L166.302 372.844L156.064 457.131ZM196.81 372.983L194.639 353.494L229.986 338.779L200.849 457.131L190.61 372.844L196.81 372.983Z" fill="white"/>
<path d="M21.3284 78.0904L73.0849 100.854V135.189H283.133V100.854L304.26 91.5596V139.892C299.779 140.602 296.346 144.352 296.346 148.849C296.346 152.76 298.932 156.151 302.67 157.389L296.654 195.328C296.256 197.84 296.974 200.382 298.617 202.302C300.257 204.228 302.654 205.334 305.194 205.334H321.035C323.574 205.334 325.971 204.228 327.608 202.302C329.254 200.383 329.972 197.841 329.575 195.328L323.562 157.389C327.306 156.151 329.896 152.76 329.896 148.849C329.896 144.352 326.459 140.602 321.974 139.892V83.7741L334.885 78.0979C337.428 76.9923 339.073 74.5235 339.073 71.8208C339.073 69.1322 337.432 66.6719 334.891 65.5512L192.876 3.09799C188.212 1.03958 183.244 0 178.105 0C172.968 0 168 1.03958 163.34 3.09799L21.3265 65.5512C18.787 66.6719 17.1465 69.1322 17.1465 71.8208C17.1455 74.5311 18.7898 76.9913 21.3284 78.0904Z" fill="white"/>
</svg>
