<svg width="415" height="411" viewBox="0 0 415 411" fill="none" xmlns="http://www.w3.org/2000/svg">
<path fill-rule="evenodd" clip-rule="evenodd" d="M407.426 0H7.14783C3.20223 0 0 3.20223 0 7.14783C0 11.0934 3.20223 14.2957 7.14783 14.2957H22.6658C21.8723 16.5329 21.4435 18.9346 21.4435 21.4435V94.1798C21.4435 98.1254 24.6457 101.328 28.5913 101.328C32.5369 101.328 35.7391 98.1254 35.7391 94.1798V46.4609H350.243C354.189 46.4609 357.391 43.2586 357.391 39.313C357.391 35.3674 354.189 32.1652 350.243 32.1652H35.7391V21.4435C35.7391 17.4979 38.9414 14.2957 42.887 14.2957H371.687C375.633 14.2957 378.835 17.4979 378.835 21.4435V239.452C378.835 243.398 375.633 246.6 371.687 246.6H207.287V173.335C207.287 129.912 172.084 94.7087 128.661 94.7087C123.908 94.7087 119.119 94.7087 114.365 94.7087C70.9422 94.7087 35.7391 129.912 35.7391 173.335V298.722C27.8479 301.074 20.5857 305.362 14.653 311.288C5.26795 320.673 0 333.396 0 346.67C0 373.824 0 403.852 0 403.852C0 407.798 3.20223 411 7.14783 411H235.878C239.824 411 243.026 407.798 243.026 403.852V346.67C243.026 333.396 237.758 320.673 228.373 311.288C222.44 305.362 215.178 301.074 207.287 298.722V260.896H371.687C383.531 260.896 393.13 251.296 393.13 239.452V21.4435C393.13 18.9346 392.702 16.5329 391.908 14.2957H407.426C411.372 14.2957 414.574 11.0934 414.574 7.14783C414.574 3.20223 411.372 0 407.426 0ZM192.991 310.93H163.807C160.397 331.202 142.749 346.67 121.513 346.67C100.277 346.67 82.6289 331.202 79.2194 310.93H50.0348C40.5568 310.93 31.4647 314.697 24.7601 321.395C18.0626 328.1 14.2957 337.192 14.2957 346.67V396.704H42.887V368.113C42.887 364.167 46.0892 360.965 50.0348 360.965C53.9804 360.965 57.1826 364.167 57.1826 368.113V396.704H185.843V368.113C185.843 364.167 189.046 360.965 192.991 360.965C196.937 360.965 200.139 364.167 200.139 368.113V396.704H228.73V346.67C228.73 337.192 224.964 328.1 218.266 321.395C211.561 314.697 202.469 310.93 192.991 310.93ZM149.204 310.93H93.8224C97.0031 323.253 108.204 332.374 121.513 332.374C134.822 332.374 146.023 323.253 149.204 310.93ZM192.991 296.635H50.0348V173.335C50.0348 137.803 78.8334 109.004 114.365 109.004C119.119 109.004 123.908 109.004 128.661 109.004C164.193 109.004 192.991 137.803 192.991 173.335V296.635ZM178.696 175.122C178.696 171.176 175.493 167.974 171.548 167.974H125.93L113.608 143.335C112.4 140.912 109.926 139.383 107.217 139.383C104.508 139.383 102.035 140.912 100.827 143.335L88.5044 167.974H71.4783C67.5327 167.974 64.3304 171.176 64.3304 175.122V246.6C64.3304 266.335 80.3344 282.339 100.07 282.339C113.515 282.339 129.511 282.339 142.957 282.339C162.692 282.339 178.696 266.335 178.696 246.6C178.696 217.022 178.696 175.122 178.696 175.122ZM164.4 182.27V246.6C164.4 258.444 154.8 268.043 142.957 268.043H100.07C88.2256 268.043 78.6261 258.444 78.6261 246.6V182.27H92.9217C95.6308 182.27 98.1039 180.74 99.3119 178.317L107.217 162.513L115.123 178.317C116.331 180.74 118.804 182.27 121.513 182.27H164.4ZM268.043 225.157H350.243C354.189 225.157 357.391 221.954 357.391 218.009C357.391 214.063 354.189 210.861 350.243 210.861H268.043C264.098 210.861 260.896 214.063 260.896 218.009C260.896 221.954 264.098 225.157 268.043 225.157ZM243.026 189.417H350.243C354.189 189.417 357.391 186.215 357.391 182.27C357.391 178.324 354.189 175.122 350.243 175.122H243.026C239.08 175.122 235.878 178.324 235.878 182.27C235.878 186.215 239.08 189.417 243.026 189.417ZM243.026 153.678H350.243C354.189 153.678 357.391 150.476 357.391 146.53C357.391 142.585 354.189 139.383 350.243 139.383H243.026C239.08 139.383 235.878 142.585 235.878 146.53C235.878 150.476 239.08 153.678 243.026 153.678ZM243.026 117.939H350.243C354.189 117.939 357.391 114.737 357.391 110.791C357.391 106.846 354.189 103.643 350.243 103.643H243.026C239.08 103.643 235.878 106.846 235.878 110.791C235.878 114.737 239.08 117.939 243.026 117.939ZM192.991 82.2H350.243C354.189 82.2 357.391 78.9978 357.391 75.0522C357.391 71.1066 354.189 67.9044 350.243 67.9044H192.991C189.046 67.9044 185.843 71.1066 185.843 75.0522C185.843 78.9978 189.046 82.2 192.991 82.2Z" fill="white"/>
</svg>
